<svg width="14" height="14" viewBox="0 0 14 14" fill="none" xmlns="http://www.w3.org/2000/svg">
<path d="M12.9384 0H1.06218C0.475854 0 0 0.475836 0 1.06213V12.9368C0 13.5231 0.475854 13.9989 1.06218 13.9989H12.9378C13.5241 13.9989 14 13.5231 14 12.9368V1.06213C14.0005 0.475836 13.5252 0 12.9384 0ZM11.992 5.08922L6.6678 10.4148C6.46015 10.6224 6.18876 10.726 5.91685 10.726C5.64493 10.726 5.37354 10.6224 5.16589 10.4148L2.00857 7.25704C1.59379 6.84334 1.59379 6.16994 2.00857 5.75518C2.42282 5.34095 3.09571 5.34095 3.51049 5.75518L5.91685 8.16198L10.4906 3.58736C10.9048 3.17313 11.5782 3.17313 11.992 3.58736C12.4073 4.00212 12.4083 4.67446 11.992 5.08922Z" fill="#E33C50"/>
</svg>
