<svg width="16" height="16" viewBox="0 0 16 16" fill="none" xmlns="http://www.w3.org/2000/svg">
<g opacity="0.5" clip-path="url(#clip0)">
<path d="M8 3.23126C11.057 3.23126 13.8292 4.90376 15.8748 7.62034C16.0417 7.8429 16.0417 8.15383 15.8748 8.3764C13.8292 11.0962 11.057 12.7687 8 12.7687C4.94303 12.7687 2.17081 11.0962 0.125193 8.37967C-0.041729 8.15711 -0.041729 7.84617 0.125193 7.62361C2.17081 4.90376 4.94303 3.23126 8 3.23126ZM7.78071 11.3581C9.80996 11.4857 11.4857 9.81324 11.3581 7.78071C11.2533 6.10494 9.89506 4.74665 8.21929 4.64192C6.19004 4.51427 4.51427 6.18677 4.64192 8.21929C4.74992 9.89179 6.10821 11.2501 7.78071 11.3581ZM7.88217 9.80669C8.97535 9.87542 9.8787 8.97535 9.80669 7.88217C9.75105 6.97883 9.0179 6.24896 8.11455 6.19004C7.02138 6.12131 6.11803 7.02138 6.19004 8.11456C6.24895 9.02117 6.9821 9.75105 7.88217 9.80669Z" fill="white"/>
</g>
<defs>
<clipPath id="clip0">
<rect width="16" height="16" fill="white" transform="matrix(-1 0 0 1 16 0)"/>
</clipPath>
</defs>
</svg>
