<svg width="47" height="38" viewBox="0 0 47 38" fill="none" xmlns="http://www.w3.org/2000/svg">
<path d="M34.1376 26.5903L41.7683 11.6784C41.7683 11.6784 33.0369 10.4945 29.6584 13.8335C26.5162 16.9389 24.8052 21.0872 23.3982 23.5567C21.9913 26.0261 20.9883 26.5903 20.9883 26.5903H34.1376Z" fill="#02DF70"/>
<path d="M34.1376 26.5903L41.7683 11.6784C41.7683 11.6784 33.0369 10.4945 29.6584 13.8335C26.5162 16.9389 24.8052 21.0872 23.3982 23.5567C21.9913 26.0261 20.9883 26.5903 20.9883 26.5903H34.1376Z" fill="url(#paint0_linear)"/>
<path d="M14.2963 11.3701L5.54395 28.2838C5.54395 28.2838 13.2401 29.3385 16.8393 26.2369C19.4385 23.9971 22.8329 16.9273 24.2398 14.4579C25.6467 11.9884 26.6498 11.4242 26.6498 11.4242L14.2963 11.3701Z" fill="#07BAA2"/>
<path d="M14.2963 11.3701L5.54395 28.2838C5.54395 28.2838 13.2401 29.3385 16.8393 26.2369C19.4385 23.9971 22.8329 16.9273 24.2398 14.4579C25.6467 11.9884 26.6498 11.4242 26.6498 11.4242L14.2963 11.3701Z" fill="url(#paint1_linear)"/>
<path d="M14.8552 37.5878L18.9654 29.248C13.399 32.4555 5.35819 31.5409 3.80003 31.5304C2.11534 34.6803 0.836914 37.5104 0.836914 37.5104L14.8552 37.5878Z" fill="#08B4A9"/>
<path d="M14.8552 37.5878L18.9654 29.248C13.3989 32.4555 5.35819 31.5409 3.80003 31.5304C2.11534 34.6803 0.836914 37.5104 0.836914 37.5104L14.8552 37.5878Z" fill="url(#paint2_linear)"/>
<path d="M33.0117 0.412109L28.5439 9.67001C32.8562 6.6921 42.1477 7.68319 43.6967 7.69369C45.3715 4.54385 46.9478 0.489477 46.9478 0.489477L33.0117 0.412109Z" fill="#00EC6A"/>
<path d="M33.0117 0.412109L28.5439 9.67001C32.8562 6.6921 42.1477 7.68319 43.6967 7.69369C45.3715 4.54385 46.9478 0.489477 46.9478 0.489477L33.0117 0.412109Z" fill="#00EC6A"/>
<path d="M33.0117 0.412109L28.5439 9.67001C32.8562 6.6921 42.1477 7.68319 43.6967 7.69369C45.3715 4.54385 46.9478 0.489477 46.9478 0.489477L33.0117 0.412109Z" fill="url(#paint3_linear)"/>
<path d="M33.0117 0.412109L28.5439 9.67001C32.8562 6.6921 42.1477 7.68319 43.6967 7.69369C45.3715 4.54385 46.9478 0.489477 46.9478 0.489477L33.0117 0.412109Z" fill="url(#paint4_linear)"/>
<defs>
<linearGradient id="paint0_linear" x1="20.9883" y1="26.5903" x2="41.716" y2="11.6061" gradientUnits="userSpaceOnUse">
<stop stop-color="#07B9A3"/>
<stop offset="1" stop-color="#07B9A3" stop-opacity="0"/>
</linearGradient>
<linearGradient id="paint1_linear" x1="9.23644" y1="26.1197" x2="26.5962" y2="11.3612" gradientUnits="userSpaceOnUse">
<stop stop-color="#0E80DF"/>
<stop offset="1" stop-color="#0E7EE0" stop-opacity="0"/>
</linearGradient>
<linearGradient id="paint2_linear" x1="3.66058" y1="36.212" x2="18.9459" y2="29.2055" gradientUnits="userSpaceOnUse">
<stop stop-color="#0F7BE4"/>
<stop offset="1" stop-color="#0F7AE4" stop-opacity="0"/>
</linearGradient>
<linearGradient id="paint3_linear" x1="28.5439" y1="5.04106" x2="46.9478" y2="5.04106" gradientUnits="userSpaceOnUse">
<stop stop-color="#04CF8C"/>
<stop offset="1" stop-color="#04CF8C" stop-opacity="0"/>
</linearGradient>
<linearGradient id="paint4_linear" x1="28.5439" y1="9.67001" x2="46.9639" y2="0.521852" gradientUnits="userSpaceOnUse">
<stop stop-color="#04CF8C"/>
<stop offset="1" stop-color="#04CF8C" stop-opacity="0"/>
</linearGradient>
</defs>
</svg>
