<svg width="16" height="16" viewBox="0 0 16 16" fill="none" xmlns="http://www.w3.org/2000/svg" class="mr-4">
<g opacity="0.5" clip-path="url(#clip0)">
<path d="M15.8548 15.1462L0.855183 0.146552C0.660188 -0.0484437 0.343195 -0.0484437 0.1482 0.146552C-0.0467957 0.341547 -0.0467957 0.65854 0.1482 0.853536L6.24406 6.9504C6.22206 6.9634 6.19506 6.96339 6.17606 6.98039L4.17611 8.69036C4.06511 8.78535 4.00111 8.92435 4.00111 9.07035V15.5002C4.00111 15.7762 4.2251 16.0002 4.5011 16.0002H6.50105C6.77704 16.0002 7.00104 15.7762 7.00104 15.5002V7.70738L8.00102 8.70735V15.5002C8.00102 15.7762 8.22501 16.0002 8.501 16.0002H10.501C10.777 16.0002 11.0009 15.7762 11.0009 15.5002V11.7073L12.0009 12.7073V15.5002C12.0009 15.7762 12.2249 16.0002 12.5009 16.0002H14.5009C14.7159 16.0002 14.8959 15.8632 14.9659 15.6722L15.1468 15.8532C15.2448 15.9512 15.3728 16.0002 15.5008 16.0002C15.6288 16.0002 15.7568 15.9512 15.8548 15.8542C16.0498 15.6582 16.0498 15.3422 15.8548 15.1462Z" fill="white"/>
<path d="M10.7089 3.47629C10.5319 3.39429 10.3239 3.42329 10.1749 3.55029L8.175 5.26025C8.064 5.35525 8 5.49424 8 5.64024V5.87924L10.9999 8.87916V3.93028C10.9999 3.73529 10.8869 3.55729 10.7089 3.47629Z" fill="white"/>
<path d="M14.7087 0.046372C14.5327 -0.0356261 14.3227 -0.00762675 14.1747 0.12037L12.1748 1.83033C12.0638 1.92533 11.9998 2.06433 11.9998 2.21032V9.87914L14.9997 12.8791V0.500361C14.9997 0.305366 14.8867 0.12737 14.7087 0.046372Z" fill="white"/>
<path d="M2.70894 10.3361C2.53194 10.2541 2.32395 10.2831 2.17495 10.4101L0.174996 12.1201C0.0639985 12.2151 0 12.3541 0 12.5001V15.5C0 15.776 0.223995 16 0.499988 16H2.49994C2.77593 16 2.99993 15.776 2.99993 15.5V10.7901C2.99993 10.5951 2.88593 10.4181 2.70894 10.3361Z" fill="white"/>
</g>
<defs>
<clipPath id="clip0">
<rect width="16" height="16" fill="white"/>
</clipPath>
</defs>
</svg>