<svg width="140" height="35" viewBox="0 0 140 35" fill="none" xmlns="http://www.w3.org/2000/svg">
<path d="M0.5 4C0.5 2.067 2.067 0.5 4 0.5H136C137.933 0.5 139.5 2.067 139.5 4V31C139.5 32.933 137.933 34.5 136 34.5H4C2.067 34.5 0.5 32.933 0.5 31V4Z" stroke="url(#paint0_linear)"/>
<path d="M16.7499 19.395C16.689 20.2365 16.3775 20.8989 15.8153 21.3823C15.2567 21.8657 14.5191 22.1074 13.6024 22.1074C12.5998 22.1074 11.8103 21.7708 11.2338 21.0977C10.6609 20.4209 10.3744 19.4935 10.3744 18.3154V17.8374C10.3744 17.0854 10.5069 16.423 10.7719 15.8501C11.0368 15.2772 11.4146 14.8385 11.9052 14.5342C12.3993 14.2262 12.9722 14.0723 13.6239 14.0723C14.5263 14.0723 15.2531 14.314 15.8046 14.7974C16.356 15.2808 16.6747 15.9593 16.7606 16.833H15.1493C15.1099 16.3281 14.9685 15.9629 14.725 15.7373C14.4851 15.5081 14.118 15.3936 13.6239 15.3936C13.0868 15.3936 12.684 15.5869 12.4154 15.9736C12.1504 16.3568 12.0144 16.953 12.0072 17.7622V18.353C12.0072 19.1981 12.1343 19.8158 12.3886 20.2061C12.6464 20.5964 13.051 20.7915 13.6024 20.7915C14.1001 20.7915 14.4708 20.6787 14.7142 20.4531C14.9613 20.224 15.1028 19.8713 15.1386 19.395H16.7499ZM20.703 19.1372H19.4193V22H17.808V14.1797H20.7138C21.6376 14.1797 22.3501 14.3856 22.8514 14.7974C23.3528 15.2091 23.6034 15.791 23.6034 16.543C23.6034 17.0765 23.487 17.5223 23.2543 17.8804C23.0251 18.2349 22.676 18.5177 22.2069 18.729L23.8988 21.9248V22H22.1693L20.703 19.1372ZM19.4193 17.832H20.7191C21.1237 17.832 21.4371 17.73 21.6591 17.5259C21.8811 17.3182 21.9921 17.0335 21.9921 16.6719C21.9921 16.3031 21.8864 16.013 21.6752 15.8018C21.4675 15.5905 21.147 15.4849 20.7138 15.4849H19.4193V17.832ZM29.5385 18.6108H26.4447V20.7056H30.0756V22H24.8334V14.1797H30.0648V15.4849H26.4447V17.3486H29.5385V18.6108ZM35.4359 20.3887H32.6107L32.0736 22H30.3602L33.2714 14.1797H34.7645L37.6918 22H35.9784L35.4359 20.3887ZM33.0458 19.0835H35.0009L34.018 16.1562L33.0458 19.0835ZM43.6644 15.4849H41.2689V22H39.6576V15.4849H37.2943V14.1797H43.6644V15.4849ZM49.2933 18.6108H46.1996V20.7056H49.8305V22H44.5883V14.1797H49.8197V15.4849H46.1996V17.3486H49.2933V18.6108ZM57.9301 20.3887H55.1049L54.5678 22H52.8544L55.7655 14.1797H57.2587L60.1859 22H58.4725L57.9301 20.3887ZM55.5399 19.0835H57.495L56.5121 16.1562L55.5399 19.0835ZM70.015 22H68.4037L65.267 16.8545V22H63.6556V14.1797H65.267L68.4091 19.3359V14.1797H70.015V22ZM76.1273 18.6108H73.0336V20.7056H76.6644V22H71.4222V14.1797H76.6537V15.4849H73.0336V17.3486H76.1273V18.6108ZM83.7006 19.7441L84.7533 14.1797H86.3593L84.6244 22H83.0023L81.7294 16.7686L80.4564 22H78.8344L77.0995 14.1797H78.7055L79.7636 19.7334L81.0526 14.1797H82.4169L83.7006 19.7441ZM96.0648 19.7441L97.1176 14.1797H98.7235L96.9887 22H95.3666L94.0936 16.7686L92.8207 22H91.1986L89.4638 14.1797H91.0697L92.1278 19.7334L93.4169 14.1797H94.7811L96.0648 19.7441ZM103.778 20.3887H100.953L100.415 22H98.702L101.613 14.1797H103.106L106.034 22H104.32L103.778 20.3887ZM101.388 19.0835H103.343L102.36 16.1562L101.388 19.0835ZM108.375 20.7056H111.797V22H106.764V14.1797H108.375V20.7056ZM114.337 20.7056H117.759V22H112.726V14.1797H114.337V20.7056ZM123.393 18.6108H120.299V20.7056H123.93V22H118.688V14.1797H123.919V15.4849H120.299V17.3486H123.393V18.6108ZM130.87 15.4849H128.474V22H126.863V15.4849H124.499V14.1797H130.87V15.4849Z" fill="url(#paint1_linear)"/>
<defs>
<linearGradient id="paint0_linear" x1="-1.87323e-08" y1="20.5" x2="144.028" y2="16.9495" gradientUnits="userSpaceOnUse">
<stop stop-color="#1262FF"/>
<stop offset="1" stop-color="#00D46A"/>
</linearGradient>
<linearGradient id="paint1_linear" x1="117.622" y1="18.0667" x2="2.5977" y2="18.0667" gradientUnits="userSpaceOnUse">
<stop stop-color="#1262FF"/>
<stop offset="1" stop-color="#00D46A"/>
</linearGradient>
</defs>
</svg>
