<svg width="176" height="58" viewBox="0 0 176 58" fill="none" xmlns="http://www.w3.org/2000/svg">
<path d="M42.1385 34.5902L49.7693 19.6783C49.7693 19.6783 41.0379 18.4945 37.6594 21.8334C34.5171 24.9389 32.8062 29.0871 31.3992 31.5566C29.9923 34.026 28.9893 34.5902 28.9893 34.5902H42.1385Z" fill="#02DF70"/>
<path d="M42.1385 34.5902L49.7693 19.6783C49.7693 19.6783 41.0379 18.4945 37.6594 21.8334C34.5171 24.9389 32.8062 29.0871 31.3992 31.5566C29.9923 34.026 28.9893 34.5902 28.9893 34.5902H42.1385Z" fill="url(#paint0_linear)"/>
<path d="M22.2968 19.3702L13.5444 36.2839C13.5444 36.2839 21.2406 37.3385 24.8398 34.237C27.439 31.9972 30.8333 24.9274 32.2403 22.4579C33.6472 19.9885 34.6503 19.4243 34.6503 19.4243L22.2968 19.3702Z" fill="#07BAA2"/>
<path d="M22.2968 19.3702L13.5444 36.2839C13.5444 36.2839 21.2406 37.3385 24.8398 34.237C27.439 31.9972 30.8333 24.9274 32.2403 22.4579C33.6472 19.9885 34.6503 19.4243 34.6503 19.4243L22.2968 19.3702Z" fill="url(#paint1_linear)"/>
<path d="M22.8557 45.5876L26.9659 37.2479C21.3994 40.4553 13.3587 39.5407 11.8005 39.5302C10.1158 42.6801 8.8374 45.5103 8.8374 45.5103L22.8557 45.5876Z" fill="#08B4A9"/>
<path d="M22.8557 45.5876L26.9659 37.2479C21.3994 40.4553 13.3587 39.5407 11.8005 39.5302C10.1158 42.6801 8.8374 45.5103 8.8374 45.5103L22.8557 45.5876Z" fill="url(#paint2_linear)"/>
<path d="M41.0122 8.41202L36.5444 17.6699C40.8567 14.692 50.1482 15.6831 51.6972 15.6936C53.372 12.5438 54.9483 8.48939 54.9483 8.48939L41.0122 8.41202Z" fill="#00EC6A"/>
<path d="M41.0122 8.41202L36.5444 17.6699C40.8567 14.692 50.1482 15.6831 51.6972 15.6936C53.372 12.5438 54.9483 8.48939 54.9483 8.48939L41.0122 8.41202Z" fill="#00EC6A"/>
<path d="M41.0122 8.41202L36.5444 17.6699C40.8567 14.692 50.1482 15.6831 51.6972 15.6936C53.372 12.5438 54.9483 8.48939 54.9483 8.48939L41.0122 8.41202Z" fill="url(#paint3_linear)"/>
<path d="M41.0122 8.41202L36.5444 17.6699C40.8567 14.692 50.1482 15.6831 51.6972 15.6936C53.372 12.5438 54.9483 8.48939 54.9483 8.48939L41.0122 8.41202Z" fill="url(#paint4_linear)"/>
<path d="M59.346 18.58H73.286V22.184H64.004V27.08H72.402V30.65H64.004V36.396H73.388V40H59.346V18.58ZM79.9705 18.58H85.8525L88.9125 28.338C89.0485 28.7687 89.1845 29.2333 89.3205 29.732C89.4791 30.2307 89.6265 30.7293 89.7625 31.228C89.8985 31.7267 90.0231 32.214 90.1365 32.69C90.2498 33.166 90.3405 33.608 90.4085 34.016H90.5445C90.6125 33.6533 90.7031 33.234 90.8165 32.758C90.9298 32.2593 91.0545 31.7493 91.1905 31.228C91.3265 30.7067 91.4625 30.1967 91.5985 29.698C91.7345 29.1993 91.8591 28.746 91.9725 28.338L94.9305 18.58H100.812L102.41 40H98.0245C97.8885 37.6427 97.7525 35.2853 97.6165 32.928C97.4805 30.5707 97.3898 28.1907 97.3445 25.788L97.3105 23H97.2085C96.9138 24.2467 96.5851 25.55 96.2225 26.91C95.8825 28.27 95.5538 29.46 95.2365 30.48L92.2105 40H88.6065L85.5125 30.446C85.1271 29.222 84.7645 27.93 84.4245 26.57C84.0845 25.21 83.8125 24.02 83.6085 23H83.5065C83.5065 23.816 83.4951 24.6773 83.4725 25.584C83.4498 26.468 83.4158 27.352 83.3705 28.236C83.3478 29.12 83.3138 29.9927 83.2685 30.854C83.2458 31.6927 83.2118 32.4633 83.1665 33.166L82.7585 40H78.4405L79.9705 18.58ZM115.977 18.58C117.495 18.58 118.901 18.7953 120.193 19.226C121.485 19.6567 122.595 20.3027 123.525 21.164C124.477 22.0027 125.213 23.068 125.735 24.36C126.279 25.6293 126.551 27.114 126.551 28.814C126.551 30.8767 126.233 32.622 125.599 34.05C124.964 35.478 124.103 36.634 123.015 37.518C121.949 38.402 120.703 39.0367 119.275 39.422C117.869 39.8073 116.373 40 114.787 40H109.007V18.58H115.977ZM112.135 37.416H114.481C115.569 37.416 116.634 37.3027 117.677 37.076C118.719 36.8267 119.637 36.3847 120.431 35.75C121.247 35.0927 121.904 34.2087 122.403 33.098C122.901 31.9873 123.151 30.5593 123.151 28.814C123.151 27.59 122.969 26.502 122.607 25.55C122.244 24.598 121.723 23.8047 121.043 23.17C120.363 22.5127 119.535 22.014 118.561 21.674C117.609 21.334 116.543 21.164 115.365 21.164H112.135V37.416ZM133.881 18.58L139.015 26.944L144.387 18.58H147.821L140.783 29.12L148.161 40H144.557L139.015 31.296L133.439 40H130.005L137.145 29.12L130.311 18.58H133.881Z" fill="white"/>
<path d="M153.762 19V10.4688H156.387C157.137 10.4688 157.807 10.6387 158.396 10.9785C158.99 11.3145 159.453 11.7949 159.785 12.4199C160.117 13.041 160.283 13.748 160.283 14.541V14.9336C160.283 15.7266 160.119 16.4316 159.791 17.0488C159.467 17.666 159.008 18.1445 158.414 18.4844C157.82 18.8242 157.15 18.9961 156.404 19H153.762ZM155.52 11.8926V17.5879H156.369C157.057 17.5879 157.582 17.3633 157.945 16.9141C158.309 16.4648 158.494 15.8223 158.502 14.9863V14.5352C158.502 13.668 158.322 13.0117 157.963 12.5664C157.604 12.1172 157.078 11.8926 156.387 11.8926H155.52ZM166.699 15.3027H163.324V17.5879H167.285V19H161.566V10.4688H167.273V11.8926H163.324V13.9258H166.699V15.3027ZM171.369 13.4102L172.969 10.4688H174.99L172.506 14.6992L175.055 19H173.01L171.369 16.0117L169.729 19H167.684L170.232 14.6992L167.748 10.4688H169.77L171.369 13.4102Z" fill="url(#paint5_linear)"/>
<defs>
<linearGradient id="paint0_linear" x1="28.9893" y1="34.5902" x2="49.717" y2="19.606" gradientUnits="userSpaceOnUse">
<stop stop-color="#07B9A3"/>
<stop offset="1" stop-color="#07B9A3" stop-opacity="0"/>
</linearGradient>
<linearGradient id="paint1_linear" x1="17.2369" y1="34.1198" x2="34.5967" y2="19.3613" gradientUnits="userSpaceOnUse">
<stop stop-color="#0E80DF"/>
<stop offset="1" stop-color="#0E7EE0" stop-opacity="0"/>
</linearGradient>
<linearGradient id="paint2_linear" x1="11.6611" y1="44.2118" x2="26.9464" y2="37.2053" gradientUnits="userSpaceOnUse">
<stop stop-color="#0F7BE4"/>
<stop offset="1" stop-color="#0F7AE4" stop-opacity="0"/>
</linearGradient>
<linearGradient id="paint3_linear" x1="36.5444" y1="13.041" x2="54.9483" y2="13.041" gradientUnits="userSpaceOnUse">
<stop stop-color="#04CF8C"/>
<stop offset="1" stop-color="#04CF8C" stop-opacity="0"/>
</linearGradient>
<linearGradient id="paint4_linear" x1="36.5444" y1="17.6699" x2="54.9644" y2="8.52176" gradientUnits="userSpaceOnUse">
<stop stop-color="#04CF8C"/>
<stop offset="1" stop-color="#04CF8C" stop-opacity="0"/>
</linearGradient>
<linearGradient id="paint5_linear" x1="173.788" y1="10.1875" x2="150.86" y2="19.549" gradientUnits="userSpaceOnUse">
<stop stop-color="#00D46A"/>
<stop offset="1" stop-color="#1262FF"/>
</linearGradient>
</defs>
</svg>
