<svg width="20" height="20" viewBox="0 0 20 20" fill="none" xmlns="http://www.w3.org/2000/svg">
<path d="M17.0711 12.9778C15.9819 11.9586 14.6855 11.2042 13.2711 10.7475C14.786 9.77116 15.7812 8.1372 15.7812 6.28961C15.7812 3.30676 13.1878 0.880005 10 0.880005C6.81223 0.880005 4.21875 3.30676 4.21875 6.28961C4.21875 8.1372 5.21402 9.77116 6.72898 10.7475C5.31453 11.2042 4.01813 11.9586 2.92895 12.9778C1.0402 14.7451 0 17.0949 0 19.5943H1.5625C1.5625 15.2409 5.34754 11.6992 10 11.6992C14.6525 11.6992 18.4375 15.2409 18.4375 19.5943H20C20 17.0949 18.9598 14.7451 17.0711 12.9778ZM10 10.2372C7.67379 10.2372 5.78125 8.46631 5.78125 6.28961C5.78125 4.1129 7.67379 2.34206 10 2.34206C12.3262 2.34206 14.2188 4.1129 14.2188 6.28961C14.2188 8.46631 12.3262 10.2372 10 10.2372Z" fill="white"/>
</svg>
