<svg width="16" height="16" viewBox="0 0 16 16" fill="none" xmlns="http://www.w3.org/2000/svg">
<g clip-path="url(#clip0)">
<path d="M11.6206 11.6812C11.2156 11.2831 10.7519 10.9581 10.2488 10.715C10.0932 11.5668 9.86045 12.3343 9.55298 12.9276C10.3398 12.6789 11.046 12.2468 11.6206 11.6812Z" fill="white"/>
<path d="M6.7019 10.3657C7.01031 12.193 7.63213 13.1661 7.9999 13.1661C8.36768 13.1661 8.9895 12.193 9.29791 10.3657C8.47483 10.1518 7.58091 10.1373 6.7019 10.3657Z" fill="white"/>
<path d="M5.75113 10.715C5.24806 10.9581 4.78435 11.2831 4.37939 11.6812C4.95403 12.2468 5.66021 12.6789 6.447 12.9276C6.13953 12.3343 5.90674 11.5668 5.75113 10.715Z" fill="white"/>
<path d="M9.42482 6.63326C8.51681 6.84861 7.54275 6.86276 6.5751 6.63326C6.4971 7.5192 6.4971 8.4808 6.5751 9.36674C7.4831 9.15139 8.45716 9.13723 9.42482 9.36674C9.50278 8.4808 9.50281 7.51923 9.42482 6.63326Z" fill="white"/>
<path d="M12.2643 5.08717C11.7174 5.61118 11.0837 6.02583 10.396 6.3158C10.5097 7.39645 10.5147 8.55537 10.396 9.68422C11.0837 9.9742 11.7174 10.3888 12.2643 10.9129C13.4502 9.18218 13.4833 6.86625 12.2643 5.08717Z" fill="white"/>
<path d="M11.6206 4.3188C11.046 3.75323 10.3398 3.32108 9.55298 3.07236C9.86045 3.66574 10.0932 4.43316 10.2488 5.28495C10.7519 5.04185 11.2156 4.71688 11.6206 4.3188Z" fill="white"/>
<path d="M9.29791 5.63427C8.9895 3.80695 8.36768 2.83392 7.9999 2.83392C7.63213 2.83392 7.01031 3.80695 6.7019 5.63427C7.55251 5.85531 8.44558 5.85575 9.29791 5.63427Z" fill="white"/>
<path d="M4.37939 4.3188C4.78435 4.71688 5.24806 5.04185 5.75113 5.28495C5.90674 4.43316 6.13953 3.66574 6.447 3.07236C5.66021 3.32108 4.95403 3.75323 4.37939 4.3188Z" fill="white"/>
<path d="M3.73591 5.08717C2.54999 6.81785 2.51681 9.13378 3.73591 10.9129C4.28273 10.3888 4.91642 9.9742 5.60416 9.68422C5.49049 8.60358 5.48542 7.44466 5.60416 6.3158C4.91642 6.02583 4.28273 5.61118 3.73591 5.08717Z" fill="white"/>
<path d="M4.65434 14.15C4.55528 14.4771 4.38374 14.7727 4.15845 15.0187C6.53653 16.3256 9.45815 16.3285 11.8414 15.0187C11.6162 14.7727 11.4446 14.4771 11.3456 14.15C9.29698 15.2696 6.75169 15.2963 4.65434 14.15Z" fill="white"/>
<path d="M11.3456 1.84997C11.4446 1.52281 11.6162 1.22722 11.8414 0.981303C9.46337 -0.325663 6.54175 -0.328538 4.15845 0.981303C4.38374 1.22722 4.55528 1.52281 4.65434 1.84997C6.70292 0.73039 9.2482 0.703736 11.3456 1.84997Z" fill="white"/>
<path d="M15.0188 4.15852C14.7729 4.38381 14.4773 4.55536 14.1501 4.65441C15.2697 6.70287 15.2965 9.24799 14.1501 11.3456C14.4773 11.4447 14.7729 11.6162 15.0188 11.8415C16.3258 9.46347 16.3287 6.54182 15.0188 4.15852Z" fill="white"/>
<path d="M1.84996 4.65441C1.5228 4.55536 1.2272 4.38381 0.981291 4.15852C-0.325644 6.53648 -0.32855 9.45822 0.981291 11.8415C1.2272 11.6162 1.5228 11.4447 1.84996 11.3456C0.730441 9.29718 0.703568 6.75205 1.84996 4.65441Z" fill="white"/>
<path d="M13.4993 3.75041C13.8749 3.75041 14.2282 3.58318 14.4664 3.29202C15.1254 2.48875 14.5631 1.25066 13.4993 1.25066C12.8466 1.25066 12.3039 1.75417 12.2535 2.40117C12.1926 3.11272 12.759 3.75041 13.4993 3.75041Z" fill="white"/>
<path d="M13.5988 12.2536C12.8871 12.1927 12.2495 12.7592 12.2495 13.4995C12.2495 13.875 12.4168 14.2284 12.7079 14.4666C13.5112 15.1255 14.7493 14.5633 14.7493 13.4995C14.7493 12.8468 14.2458 12.304 13.5988 12.2536Z" fill="white"/>
<path d="M2.40125 3.74634C3.11286 3.80724 3.75049 3.2408 3.75049 2.50053C3.75049 2.12497 3.58319 1.7716 3.2921 1.53344C2.48877 0.874531 1.25073 1.43669 1.25073 2.50053C1.25073 3.15321 1.75425 3.696 2.40125 3.74634Z" fill="white"/>
<path d="M2.5004 12.2496C2.12487 12.2496 1.7715 12.4168 1.53331 12.708C0.87437 13.5112 1.4366 14.7493 2.5004 14.7493C3.15312 14.7493 3.69588 14.2458 3.74621 13.5988C3.80715 12.8873 3.24067 12.2496 2.5004 12.2496Z" fill="white"/>
</g>
<defs>
<clipPath id="clip0">
<rect width="16" height="16" fill="white"/>
</clipPath>
</defs>
</svg>