<svg width="16" height="16" viewBox="0 0 16 16" fill="none" xmlns="http://www.w3.org/2000/svg" class="mr-4">
<g opacity="0.5" clip-path="url(#clip0)">
<path d="M9.41104 10.4627C9.41104 10.3163 9.29511 10.2266 9.15342 10.2635C9.15342 10.2635 8.48983 10.4359 8.00008 10.4359C7.51032 10.4359 6.84673 10.2635 6.84673 10.2635C6.70504 10.2266 6.58911 10.3163 6.58911 10.4627V11.2346C6.58911 11.3811 6.70892 11.5008 6.85529 11.5008H9.14486C9.29128 11.5008 9.41104 11.381 9.41104 11.2346V10.4627Z" fill="white"/>
<path d="M12.0466 0.532471C12.0466 0.238438 11.8081 0 11.5141 0H4.48584C4.19181 0 3.95337 0.238438 3.95337 0.532471V4.92514C3.95337 6.30007 4.36231 7.55162 5.10483 8.44919C5.85225 9.35267 6.88045 9.85029 7.99997 9.85029C9.11948 9.85029 10.1477 9.35273 10.8951 8.44919C11.6376 7.55162 12.0466 6.30007 12.0466 4.92514V0.532471Z" fill="white"/>
<path d="M3.44684 5.99201C2.71822 5.72088 2.38271 5.09203 2.38271 4.04664V1.66835H3.36776V0.603462H1.85034C1.55626 0.603462 1.31787 0.841846 1.31787 1.13593V4.04659C1.31787 5.82226 2.1684 6.90391 3.73231 7.15657C3.60382 6.78706 3.50761 6.39724 3.44684 5.99201Z" fill="white"/>
<path d="M4.48584 12.2995C4.19181 12.2995 3.95337 12.5379 3.95337 12.832V15.4676C3.95337 15.7616 4.19181 16.0001 4.48584 16.0001H11.5141C11.8082 16.0001 12.0466 15.7616 12.0466 15.4676V12.832C12.0466 12.5379 11.8082 12.2995 11.5141 12.2995H4.48584Z" fill="white"/>
<path d="M14.1498 0.603462H12.6324V1.66835H13.6174V4.04659C13.6174 5.09197 13.2819 5.72082 12.5533 5.99196C12.4925 6.39719 12.3964 6.78706 12.2678 7.15657C13.8317 6.90391 14.6823 5.82226 14.6823 4.04659V1.13593C14.6823 0.841846 14.4439 0.603462 14.1498 0.603462Z" fill="white"/>
</g>
<defs>
<clipPath id="clip0">
<rect width="16" height="16" fill="white"/>
</clipPath>
</defs>
</svg>