<svg width="16" height="16" viewBox="0 0 16 16" fill="none" xmlns="http://www.w3.org/2000/svg" class="mr-4">
<g opacity="0.5" clip-path="url(#clip0)">
<path d="M2 16H13.9996C15.1022 16 15.9995 15.1027 15.9995 14.0001V8.66693C15.9995 8.29829 15.7014 8.00033 15.3328 8.00033C14.9641 8.00033 14.6662 8.29829 14.6662 8.66693V14.0001C14.6662 14.368 14.3675 14.6667 13.9996 14.6667H2C1.63198 14.6667 1.33328 14.368 1.33328 14.0001V4.66707C1.33328 4.29904 1.63198 4.00047 2 4.00047H3.99993C4.36857 4.00047 4.66654 3.70238 4.66654 3.33374C4.66654 2.9651 4.36857 2.66714 3.99993 2.66714H2C0.897383 2.66714 7.53403e-05 3.56445 7.53403e-05 4.66707V14.0001C7.53403e-05 15.1027 0.897383 16 2 16Z" fill="white"/>
<path d="M10.4995 2.66714H10.6661V0.500593C10.6661 0.296498 10.7901 0.113277 10.9795 0.0372301C11.1688 -0.0407701 11.3854 0.00659154 11.5261 0.153193L15.8593 4.65304C16.0459 4.84712 16.0459 5.15302 15.8593 5.3471L11.5261 9.84694C11.3847 9.99355 11.1667 10.0409 10.9795 9.96352C10.7901 9.88759 10.6661 9.70425 10.6661 9.50028V7.33361H9.87415C7.77693 7.33361 5.89223 8.49824 4.95501 10.3735L4.94634 10.3903C4.86102 10.5629 4.68561 10.6669 4.4997 10.6669C4.46162 10.6669 4.42304 10.6622 4.38496 10.6528C4.15901 10.6002 3.99972 10.3988 3.99972 10.1669V9.16691C3.99972 5.58306 6.91563 2.66714 10.4995 2.66714Z" fill="white"/>
</g>
<defs>
<clipPath id="clip0">
<rect width="16" height="16" fill="white" transform="matrix(-1 0 0 1 16 0)"/>
</clipPath>
</defs>
</svg>