<svg width="14" height="14" viewBox="0 0 14 14" fill="none" xmlns="http://www.w3.org/2000/svg">
<g opacity="0.5" clip-path="url(#clip0)">
<path d="M8.23814 7.00085L13.7435 1.49553C14.0855 1.15378 14.0855 0.599278 13.7435 0.257529C13.4014 -0.0845105 12.8475 -0.0845105 12.5055 0.257529L7.00015 5.76286L1.49453 0.257529C1.15249 -0.0845105 0.59857 -0.0845105 0.25653 0.257529C-0.08551 0.599278 -0.08551 1.15378 0.25653 1.49553L5.76215 7.00085L0.25653 12.5062C-0.08551 12.8479 -0.08551 13.4024 0.25653 13.7442C0.42755 13.9149 0.651685 14.0004 0.875529 14.0004C1.09937 14.0004 1.32351 13.9149 1.49453 13.7439L7.00015 8.23856L12.5055 13.7439C12.6765 13.9149 12.9006 14.0004 13.1245 14.0004C13.3483 14.0004 13.5724 13.9149 13.7435 13.7439C14.0855 13.4021 14.0855 12.8476 13.7435 12.5059L8.23814 7.00085Z" fill="white"/>
</g>
<defs>
<clipPath id="clip0">
<rect width="14" height="14" fill="white"/>
</clipPath>
</defs>
</svg>
