<svg width="124" height="124" viewBox="0 0 124 124" fill="none" xmlns="http://www.w3.org/2000/svg">
<path d="M5.8125 19.375C6.32636 19.375 6.81917 19.1709 7.18252 18.8075C7.54587 18.4442 7.75 17.9514 7.75 17.4375V7.75H17.4375C17.9514 7.75 18.4442 7.54587 18.8075 7.18252C19.1709 6.81917 19.375 6.32636 19.375 5.8125C19.375 5.29864 19.1709 4.80583 18.8075 4.44248C18.4442 4.07913 17.9514 3.875 17.4375 3.875H5.8125C5.29864 3.875 4.80583 4.07913 4.44248 4.44248C4.07913 4.80583 3.875 5.29864 3.875 5.8125V17.4375C3.875 17.9514 4.07913 18.4442 4.44248 18.8075C4.80583 19.1709 5.29864 19.375 5.8125 19.375Z" fill="white"/>
<path d="M118.188 3.875H106.562C106.049 3.875 105.556 4.07913 105.192 4.44248C104.829 4.80583 104.625 5.29864 104.625 5.8125C104.625 6.32636 104.829 6.81917 105.192 7.18252C105.556 7.54587 106.049 7.75 106.562 7.75H116.25V17.4375C116.25 17.9514 116.454 18.4442 116.817 18.8075C117.181 19.1709 117.674 19.375 118.188 19.375C118.701 19.375 119.194 19.1709 119.558 18.8075C119.921 18.4442 120.125 17.9514 120.125 17.4375V5.8125C120.125 5.29864 119.921 4.80583 119.558 4.44248C119.194 4.07913 118.701 3.875 118.188 3.875Z" fill="white"/>
<path d="M17.4375 116.25H7.75V106.562C7.75 106.049 7.54587 105.556 7.18252 105.192C6.81917 104.829 6.32636 104.625 5.8125 104.625C5.29864 104.625 4.80583 104.829 4.44248 105.192C4.07913 105.556 3.875 106.049 3.875 106.562V118.188C3.875 118.701 4.07913 119.194 4.44248 119.558C4.80583 119.921 5.29864 120.125 5.8125 120.125H17.4375C17.9514 120.125 18.4442 119.921 18.8075 119.558C19.1709 119.194 19.375 118.701 19.375 118.188C19.375 117.674 19.1709 117.181 18.8075 116.817C18.4442 116.454 17.9514 116.25 17.4375 116.25Z" fill="white"/>
<path d="M118.188 104.625C117.674 104.625 117.181 104.829 116.817 105.192C116.454 105.556 116.25 106.049 116.25 106.562V116.25H106.562C106.049 116.25 105.556 116.454 105.192 116.817C104.829 117.181 104.625 117.674 104.625 118.188C104.625 118.701 104.829 119.194 105.192 119.558C105.556 119.921 106.049 120.125 106.562 120.125H118.188C118.701 120.125 119.194 119.921 119.558 119.558C119.921 119.194 120.125 118.701 120.125 118.188V106.562C120.125 106.049 119.921 105.556 119.558 105.192C119.194 104.829 118.701 104.625 118.188 104.625Z" fill="white"/>
<path d="M38.75 36.8125V13.5625C38.75 13.0486 38.5459 12.5558 38.1825 12.1925C37.8192 11.8291 37.3264 11.625 36.8125 11.625H13.5625C13.0486 11.625 12.5558 11.8291 12.1925 12.1925C11.8291 12.5558 11.625 13.0486 11.625 13.5625V36.8125C11.625 37.3264 11.8291 37.8192 12.1925 38.1825C12.5558 38.5459 13.0486 38.75 13.5625 38.75H36.8125C37.3264 38.75 37.8192 38.5459 38.1825 38.1825C38.5459 37.8192 38.75 37.3264 38.75 36.8125ZM34.875 34.875H15.5V15.5H34.875V34.875Z" fill="white"/>
<path d="M21.3125 31H29.0625C29.5764 31 30.0692 30.7959 30.4325 30.4325C30.7959 30.0692 31 29.5764 31 29.0625V21.3125C31 20.7986 30.7959 20.3058 30.4325 19.9425C30.0692 19.5791 29.5764 19.375 29.0625 19.375H21.3125C20.7986 19.375 20.3058 19.5791 19.9425 19.9425C19.5791 20.3058 19.375 20.7986 19.375 21.3125V29.0625C19.375 29.5764 19.5791 30.0692 19.9425 30.4325C20.3058 30.7959 20.7986 31 21.3125 31ZM23.25 23.25H27.125V27.125H23.25V23.25Z" fill="white"/>
<path d="M112.375 13.5625C112.375 13.0486 112.171 12.5558 111.808 12.1925C111.444 11.8291 110.951 11.625 110.438 11.625H87.1875C86.6736 11.625 86.1808 11.8291 85.8175 12.1925C85.4541 12.5558 85.25 13.0486 85.25 13.5625V36.8125C85.25 37.3264 85.4541 37.8192 85.8175 38.1825C86.1808 38.5459 86.6736 38.75 87.1875 38.75H110.438C110.951 38.75 111.444 38.5459 111.808 38.1825C112.171 37.8192 112.375 37.3264 112.375 36.8125V13.5625ZM108.5 34.875H89.125V15.5H108.5V34.875Z" fill="white"/>
<path d="M94.9375 31H102.688C103.201 31 103.694 30.7959 104.058 30.4325C104.421 30.0692 104.625 29.5764 104.625 29.0625V21.3125C104.625 20.7986 104.421 20.3058 104.058 19.9425C103.694 19.5791 103.201 19.375 102.688 19.375H94.9375C94.4236 19.375 93.9308 19.5791 93.5675 19.9425C93.2041 20.3058 93 20.7986 93 21.3125V29.0625C93 29.5764 93.2041 30.0692 93.5675 30.4325C93.9308 30.7959 94.4236 31 94.9375 31ZM96.875 23.25H100.75V27.125H96.875V23.25Z" fill="white"/>
<path d="M36.8125 85.25H13.5625C13.0486 85.25 12.5558 85.4541 12.1925 85.8175C11.8291 86.1808 11.625 86.6736 11.625 87.1875V110.438C11.625 110.951 11.8291 111.444 12.1925 111.808C12.5558 112.171 13.0486 112.375 13.5625 112.375H36.8125C37.3264 112.375 37.8192 112.171 38.1825 111.808C38.5459 111.444 38.75 110.951 38.75 110.438V87.1875C38.75 86.6736 38.5459 86.1808 38.1825 85.8175C37.8192 85.4541 37.3264 85.25 36.8125 85.25ZM34.875 108.5H15.5V89.125H34.875V108.5Z" fill="white"/>
<path d="M21.3125 104.625H29.0625C29.5764 104.625 30.0692 104.421 30.4325 104.058C30.7959 103.694 31 103.201 31 102.688V94.9375C31 94.4236 30.7959 93.9308 30.4325 93.5675C30.0692 93.2041 29.5764 93 29.0625 93H21.3125C20.7986 93 20.3058 93.2041 19.9425 93.5675C19.5791 93.9308 19.375 94.4236 19.375 94.9375V102.688C19.375 103.201 19.5791 103.694 19.9425 104.058C20.3058 104.421 20.7986 104.625 21.3125 104.625ZM23.25 96.875H27.125V100.75H23.25V96.875Z" fill="white"/>
<path d="M52.3125 21.3125C52.8264 21.3125 53.3192 21.1084 53.6825 20.745C54.0459 20.3817 54.25 19.8889 54.25 19.375V13.5625C54.25 13.0486 54.0459 12.5558 53.6825 12.1925C53.3192 11.8291 52.8264 11.625 52.3125 11.625H44.5625C44.0486 11.625 43.5558 11.8291 43.1925 12.1925C42.8291 12.5558 42.625 13.0486 42.625 13.5625C42.625 14.0764 42.8291 14.5692 43.1925 14.9325C43.5558 15.2959 44.0486 15.5 44.5625 15.5H50.375V19.375C50.375 19.8889 50.5791 20.3817 50.9425 20.745C51.3058 21.1084 51.7986 21.3125 52.3125 21.3125Z" fill="white"/>
<path d="M50.375 36.8125H60.0625C60.5764 36.8125 61.0692 36.6084 61.4325 36.245C61.7959 35.8817 62 35.3889 62 34.875C62 34.3611 61.7959 33.8683 61.4325 33.505C61.0692 33.1416 60.5764 32.9375 60.0625 32.9375H52.3125V27.125C52.3125 26.6111 52.1084 26.1183 51.745 25.755C51.3817 25.3916 50.8889 25.1875 50.375 25.1875H46.5V21.3125C46.5 20.7986 46.2959 20.3058 45.9325 19.9425C45.5692 19.5791 45.0764 19.375 44.5625 19.375C44.0486 19.375 43.5558 19.5791 43.1925 19.9425C42.8291 20.3058 42.625 20.7986 42.625 21.3125V27.125C42.625 27.6389 42.8291 28.1317 43.1925 28.495C43.5558 28.8584 44.0486 29.0625 44.5625 29.0625H48.4375V34.875C48.4375 35.3889 48.6416 35.8817 49.005 36.245C49.3683 36.6084 49.8611 36.8125 50.375 36.8125Z" fill="white"/>
<path d="M63.9375 11.625H60.0625C59.5486 11.625 59.0558 11.8291 58.6925 12.1925C58.3291 12.5558 58.125 13.0486 58.125 13.5625C58.125 14.0764 58.3291 14.5692 58.6925 14.9325C59.0558 15.2959 59.5486 15.5 60.0625 15.5H63.9375C64.4514 15.5 64.9442 15.2959 65.3075 14.9325C65.6709 14.5692 65.875 14.0764 65.875 13.5625C65.875 13.0486 65.6709 12.5558 65.3075 12.1925C64.9442 11.8291 64.4514 11.625 63.9375 11.625Z" fill="white"/>
<path d="M77.5 11.625H71.6875C71.1736 11.625 70.6808 11.8291 70.3175 12.1925C69.9541 12.5558 69.75 13.0486 69.75 13.5625V19.375H63.9375C63.4236 19.375 62.9308 19.5791 62.5675 19.9425C62.2041 20.3058 62 20.7986 62 21.3125C62 21.8264 62.2041 22.3192 62.5675 22.6825C62.9308 23.0459 63.4236 23.25 63.9375 23.25H71.6875C72.2014 23.25 72.6942 23.0459 73.0575 22.6825C73.4209 22.3192 73.625 21.8264 73.625 21.3125V15.5H77.5C78.0139 15.5 78.5067 15.2959 78.87 14.9325C79.2334 14.5692 79.4375 14.0764 79.4375 13.5625C79.4375 13.0486 79.2334 12.5558 78.87 12.1925C78.5067 11.8291 78.0139 11.625 77.5 11.625Z" fill="white"/>
<path d="M67.8125 27.125C67.2986 27.125 66.8058 27.3291 66.4425 27.6925C66.0791 28.0558 65.875 28.5486 65.875 29.0625V34.875C65.875 35.3889 66.0791 35.8817 66.4425 36.245C66.8058 36.6084 67.2986 36.8125 67.8125 36.8125C68.3264 36.8125 68.8192 36.6084 69.1825 36.245C69.5459 35.8817 69.75 35.3889 69.75 34.875V29.0625C69.75 28.5486 69.5459 28.0558 69.1825 27.6925C68.8192 27.3291 68.3264 27.125 67.8125 27.125Z" fill="white"/>
<path d="M77.5 21.3125V27.125H75.5625C75.0486 27.125 74.5558 27.3291 74.1925 27.6925C73.8291 28.0558 73.625 28.5486 73.625 29.0625C73.625 29.5764 73.8291 30.0692 74.1925 30.4325C74.5558 30.7959 75.0486 31 75.5625 31H79.4375C79.9514 31 80.4442 30.7959 80.8075 30.4325C81.1709 30.0692 81.375 29.5764 81.375 29.0625V21.3125C81.375 20.7986 81.1709 20.3058 80.8075 19.9425C80.4442 19.5791 79.9514 19.375 79.4375 19.375C78.9236 19.375 78.4308 19.5791 78.0675 19.9425C77.7041 20.3058 77.5 20.7986 77.5 21.3125Z" fill="white"/>
<path d="M56.1875 27.125C56.1875 27.6389 56.3916 28.1317 56.755 28.495C57.1183 28.8584 57.6111 29.0625 58.125 29.0625H60.0625C60.5764 29.0625 61.0692 28.8584 61.4325 28.495C61.7959 28.1317 62 27.6389 62 27.125C62 26.6111 61.7959 26.1183 61.4325 25.755C61.0692 25.3916 60.5764 25.1875 60.0625 25.1875H58.125C57.6111 25.1875 57.1183 25.3916 56.755 25.755C56.3916 26.1183 56.1875 26.6111 56.1875 27.125Z" fill="white"/>
<path d="M106.562 96.875C107.076 96.875 107.569 96.6709 107.933 96.3075C108.296 95.9442 108.5 95.4514 108.5 94.9375C108.5 94.4236 108.296 93.9308 107.933 93.5675C107.569 93.2041 107.076 93 106.562 93H98.8125V89.125H102.688C103.201 89.125 103.694 88.9209 104.058 88.5575C104.421 88.1942 104.625 87.7014 104.625 87.1875V75.5625C104.625 75.0486 104.421 74.5558 104.058 74.1925C103.694 73.8291 103.201 73.625 102.688 73.625C102.174 73.625 101.681 73.8291 101.317 74.1925C100.954 74.5558 100.75 75.0486 100.75 75.5625V85.25H83.3125V69.75C83.3125 69.2361 83.1084 68.7433 82.745 68.38C82.3817 68.0166 81.8889 67.8125 81.375 67.8125H75.5625V65.875C75.5625 65.3611 75.3584 64.8683 74.995 64.505C74.6317 64.1416 74.1389 63.9375 73.625 63.9375H63.9375V54.25C63.9375 53.7361 63.7334 53.2433 63.37 52.88C63.0067 52.5166 62.5139 52.3125 62 52.3125C61.4861 52.3125 60.9933 52.5166 60.63 52.88C60.2666 53.2433 60.0625 53.7361 60.0625 54.25V56.1875H56.1875V46.5C56.1875 45.9861 55.9834 45.4933 55.62 45.13C55.2567 44.7666 54.7639 44.5625 54.25 44.5625C53.7361 44.5625 53.2433 44.7666 52.88 45.13C52.5166 45.4933 52.3125 45.9861 52.3125 46.5V58.125C52.3125 58.6389 52.5166 59.1317 52.88 59.495C53.2433 59.8584 53.7361 60.0625 54.25 60.0625H60.0625V65.875C60.0625 66.3889 60.2666 66.8817 60.63 67.245C60.9933 67.6084 61.4861 67.8125 62 67.8125H71.6875V69.75C71.6875 70.2639 71.8916 70.7567 72.255 71.12C72.6183 71.4834 73.1111 71.6875 73.625 71.6875H79.4375V75.5625H75.5625C75.0486 75.5625 74.5558 75.7666 74.1925 76.13C73.8291 76.4933 73.625 76.9861 73.625 77.5C73.625 78.0139 73.8291 78.5067 74.1925 78.87C74.5558 79.2334 75.0486 79.4375 75.5625 79.4375H79.4375V108.5C79.4375 109.014 79.6416 109.507 80.005 109.87C80.3683 110.233 80.8611 110.438 81.375 110.438C81.8889 110.438 82.3817 110.233 82.745 109.87C83.1084 109.507 83.3125 109.014 83.3125 108.5V104.625H87.1875V108.5C87.1875 109.014 87.3916 109.507 87.755 109.87C88.1183 110.233 88.6111 110.438 89.125 110.438C89.6389 110.438 90.1317 110.233 90.495 109.87C90.8584 109.507 91.0625 109.014 91.0625 108.5V104.625H94.9375V110.438C94.9375 110.951 95.1416 111.444 95.505 111.808C95.8683 112.171 96.3611 112.375 96.875 112.375C97.3889 112.375 97.8817 112.171 98.245 111.808C98.6084 111.444 98.8125 110.951 98.8125 110.438V96.875H106.562ZM83.3125 89.125H94.9375V100.75H83.3125V89.125Z" fill="white"/>
<path d="M52.3125 108.5V102.688C52.3125 102.174 52.1084 101.681 51.745 101.317C51.3817 100.954 50.8889 100.75 50.375 100.75H48.4375V93H60.0625C60.5764 93 61.0692 92.7959 61.4325 92.4325C61.7959 92.0692 62 91.5764 62 91.0625V83.3125C62 82.7986 61.7959 82.3058 61.4325 81.9425C61.0692 81.5791 60.5764 81.375 60.0625 81.375H58.125V75.5625C58.125 75.0486 57.9209 74.5558 57.5575 74.1925C57.1942 73.8291 56.7014 73.625 56.1875 73.625H52.3125V65.875C52.3125 65.3611 52.1084 64.8683 51.745 64.505C51.3817 64.1416 50.8889 63.9375 50.375 63.9375C49.8611 63.9375 49.3683 64.1416 49.005 64.505C48.6416 64.8683 48.4375 65.3611 48.4375 65.875V73.625H44.5625C44.0486 73.625 43.5558 73.8291 43.1925 74.1925C42.8291 74.5558 42.625 75.0486 42.625 75.5625V83.3125C42.625 83.8264 42.8291 84.3192 43.1925 84.6825C43.5558 85.0459 44.0486 85.25 44.5625 85.25C45.0764 85.25 45.5692 85.0459 45.9325 84.6825C46.2959 84.3192 46.5 83.8264 46.5 83.3125V77.5H54.25V81.375H52.3125C51.7986 81.375 51.3058 81.5791 50.9425 81.9425C50.5791 82.3058 50.375 82.7986 50.375 83.3125V89.125H46.5C45.9861 89.125 45.4933 89.3291 45.13 89.6925C44.7666 90.0558 44.5625 90.5486 44.5625 91.0625V100.75C44.0486 100.75 43.5558 100.954 43.1925 101.317C42.8291 101.681 42.625 102.174 42.625 102.688C42.625 103.201 42.8291 103.694 43.1925 104.058C43.5558 104.421 44.0486 104.625 44.5625 104.625H48.4375V108.5H44.5625C44.0486 108.5 43.5558 108.704 43.1925 109.067C42.8291 109.431 42.625 109.924 42.625 110.438C42.625 110.951 42.8291 111.444 43.1925 111.808C43.5558 112.171 44.0486 112.375 44.5625 112.375H52.3125C52.8264 112.375 53.3192 112.171 53.6825 111.808C54.0459 111.444 54.25 110.951 54.25 110.438C54.25 109.924 54.0459 109.431 53.6825 109.067C53.3192 108.704 52.8264 108.5 52.3125 108.5ZM54.25 85.25H58.125V89.125H54.25V85.25Z" fill="white"/>
<path d="M73.625 96.875H65.875C65.3611 96.875 64.8683 97.0791 64.505 97.4425C64.1416 97.8058 63.9375 98.2986 63.9375 98.8125V108.5H60.0625C59.5486 108.5 59.0558 108.704 58.6925 109.067C58.3291 109.431 58.125 109.924 58.125 110.438C58.125 110.951 58.3291 111.444 58.6925 111.808C59.0558 112.171 59.5486 112.375 60.0625 112.375H69.75C70.2639 112.375 70.7567 112.171 71.12 111.808C71.4834 111.444 71.6875 110.951 71.6875 110.438C71.6875 109.924 71.4834 109.431 71.12 109.067C70.7567 108.704 70.2639 108.5 69.75 108.5H67.8125V100.75H71.6875V102.688C71.6875 103.201 71.8916 103.694 72.255 104.058C72.6183 104.421 73.1111 104.625 73.625 104.625C74.1389 104.625 74.6317 104.421 74.995 104.058C75.3584 103.694 75.5625 103.201 75.5625 102.688V98.8125C75.5625 98.2986 75.3584 97.8058 74.995 97.4425C74.6317 97.0791 74.1389 96.875 73.625 96.875Z" fill="white"/>
<path d="M60.0625 102.688V98.8125C60.0625 98.2986 59.8584 97.8058 59.495 97.4425C59.1317 97.0791 58.6389 96.875 58.125 96.875C57.6111 96.875 57.1183 97.0791 56.755 97.4425C56.3916 97.8058 56.1875 98.2986 56.1875 98.8125V102.688C56.1875 103.201 56.3916 103.694 56.755 104.058C57.1183 104.421 57.6111 104.625 58.125 104.625C58.6389 104.625 59.1317 104.421 59.495 104.058C59.8584 103.694 60.0625 103.201 60.0625 102.688Z" fill="white"/>
<path d="M73.625 85.25H67.8125C67.2986 85.25 66.8058 85.4541 66.4425 85.8175C66.0791 86.1808 65.875 86.6736 65.875 87.1875C65.875 87.7014 66.0791 88.1942 66.4425 88.5575C66.8058 88.9209 67.2986 89.125 67.8125 89.125H73.625C74.1389 89.125 74.6317 88.9209 74.995 88.5575C75.3584 88.1942 75.5625 87.7014 75.5625 87.1875C75.5625 86.6736 75.3584 86.1808 74.995 85.8175C74.6317 85.4541 74.1389 85.25 73.625 85.25Z" fill="white"/>
<path d="M67.8125 81.375C68.3264 81.375 68.8192 81.1709 69.1825 80.8075C69.5459 80.4442 69.75 79.9514 69.75 79.4375V73.625C69.75 73.1111 69.5459 72.6183 69.1825 72.255C68.8192 71.8916 68.3264 71.6875 67.8125 71.6875H62C61.4861 71.6875 60.9933 71.8916 60.63 72.255C60.2666 72.6183 60.0625 73.1111 60.0625 73.625C60.0625 74.1389 60.2666 74.6317 60.63 74.995C60.9933 75.3584 61.4861 75.5625 62 75.5625H65.875V79.4375C65.875 79.9514 66.0791 80.4442 66.4425 80.8075C66.8058 81.1709 67.2986 81.375 67.8125 81.375Z" fill="white"/>
<path d="M112.375 67.8125C112.375 67.2986 112.171 66.8058 111.808 66.4425C111.444 66.0791 110.951 65.875 110.438 65.875C109.924 65.875 109.431 66.0791 109.067 66.4425C108.704 66.8058 108.5 67.2986 108.5 67.8125V73.625C108.5 74.1389 108.704 74.6317 109.067 74.995C109.431 75.3584 109.924 75.5625 110.438 75.5625C110.951 75.5625 111.444 75.3584 111.808 74.995C112.171 74.6317 112.375 74.1389 112.375 73.625V67.8125Z" fill="white"/>
<path d="M110.438 79.4375C109.924 79.4375 109.431 79.6416 109.067 80.005C108.704 80.3683 108.5 80.8611 108.5 81.375V89.125C108.5 89.6389 108.704 90.1317 109.067 90.495C109.431 90.8584 109.924 91.0625 110.438 91.0625C110.951 91.0625 111.444 90.8584 111.808 90.495C112.171 90.1317 112.375 89.6389 112.375 89.125V81.375C112.375 80.8611 112.171 80.3683 111.808 80.005C111.444 79.6416 110.951 79.4375 110.438 79.4375Z" fill="white"/>
<path d="M89.125 81.375H94.9375C95.4514 81.375 95.9442 81.1709 96.3075 80.8075C96.6709 80.4442 96.875 79.9514 96.875 79.4375C96.875 78.9236 96.6709 78.4308 96.3075 78.0675C95.9442 77.7041 95.4514 77.5 94.9375 77.5H91.0625V73.625C91.0625 73.1111 90.8584 72.6183 90.495 72.255C90.1317 71.8916 89.6389 71.6875 89.125 71.6875C88.6111 71.6875 88.1183 71.8916 87.755 72.255C87.3916 72.6183 87.1875 73.1111 87.1875 73.625V79.4375C87.1875 79.9514 87.3916 80.4442 87.755 80.8075C88.1183 81.1709 88.6111 81.375 89.125 81.375Z" fill="white"/>
<path d="M29.0625 52.3125C29.0625 51.7986 28.8584 51.3058 28.495 50.9425C28.1317 50.5791 27.6389 50.375 27.125 50.375H23.25V44.5625C23.25 44.0486 23.0459 43.5558 22.6825 43.1925C22.3192 42.8291 21.8264 42.625 21.3125 42.625H13.5625C13.0486 42.625 12.5558 42.8291 12.1925 43.1925C11.8291 43.5558 11.625 44.0486 11.625 44.5625C11.625 45.0764 11.8291 45.5692 12.1925 45.9325C12.5558 46.2959 13.0486 46.5 13.5625 46.5H19.375V52.3125C19.375 52.8264 19.5791 53.3192 19.9425 53.6825C20.3058 54.0459 20.7986 54.25 21.3125 54.25H27.125C27.6389 54.25 28.1317 54.0459 28.495 53.6825C28.8584 53.3192 29.0625 52.8264 29.0625 52.3125Z" fill="white"/>
<path d="M32.9375 46.5H42.625C43.1389 46.5 43.6317 46.2959 43.995 45.9325C44.3584 45.5692 44.5625 45.0764 44.5625 44.5625V34.875C44.5625 34.3611 44.3584 33.8683 43.995 33.505C43.6317 33.1416 43.1389 32.9375 42.625 32.9375C42.1111 32.9375 41.6183 33.1416 41.255 33.505C40.8916 33.8683 40.6875 34.3611 40.6875 34.875V42.625H32.9375C32.4236 42.625 31.9308 42.8291 31.5675 43.1925C31.2041 43.5558 31 44.0486 31 44.5625C31 45.0764 31.2041 45.5692 31.5675 45.9325C31.9308 46.2959 32.4236 46.5 32.9375 46.5Z" fill="white"/>
<path d="M11.625 56.1875V63.9375C11.625 64.4514 11.8291 64.9442 12.1925 65.3075C12.5558 65.6709 13.0486 65.875 13.5625 65.875C14.0764 65.875 14.5692 65.6709 14.9325 65.3075C15.2959 64.9442 15.5 64.4514 15.5 63.9375V56.1875C15.5 55.6736 15.2959 55.1808 14.9325 54.8175C14.5692 54.4541 14.0764 54.25 13.5625 54.25C13.0486 54.25 12.5558 54.4541 12.1925 54.8175C11.8291 55.1808 11.625 55.6736 11.625 56.1875Z" fill="white"/>
<path d="M21.3125 58.125C20.7986 58.125 20.3058 58.3291 19.9425 58.6925C19.5791 59.0558 19.375 59.5486 19.375 60.0625C19.375 60.5764 19.5791 61.0692 19.9425 61.4325C20.3058 61.7959 20.7986 62 21.3125 62H25.1875C25.7014 62 26.1942 61.7959 26.5575 61.4325C26.9209 61.0692 27.125 60.5764 27.125 60.0625C27.125 59.5486 26.9209 59.0558 26.5575 58.6925C26.1942 58.3291 25.7014 58.125 25.1875 58.125H21.3125Z" fill="white"/>
<path d="M44.5625 65.875V62H46.5C47.0139 62 47.5067 61.7959 47.87 61.4325C48.2334 61.0692 48.4375 60.5764 48.4375 60.0625C48.4375 59.5486 48.2334 59.0558 47.87 58.6925C47.5067 58.3291 47.0139 58.125 46.5 58.125H44.5625V52.3125C44.5625 51.7986 44.3584 51.3058 43.995 50.9425C43.6317 50.5791 43.1389 50.375 42.625 50.375H34.875C34.3611 50.375 33.8683 50.5791 33.505 50.9425C33.1416 51.3058 32.9375 51.7986 32.9375 52.3125C32.9375 52.8264 33.1416 53.3192 33.505 53.6825C33.8683 54.0459 34.3611 54.25 34.875 54.25H40.6875V58.125H32.9375C32.4236 58.125 31.9308 58.3291 31.5675 58.6925C31.2041 59.0558 31 59.5486 31 60.0625V65.875H29.0625C28.5486 65.875 28.0558 66.0791 27.6925 66.4425C27.3291 66.8058 27.125 67.2986 27.125 67.8125V77.5H23.25V71.6875C23.25 71.1736 23.0459 70.6808 22.6825 70.3175C22.3192 69.9541 21.8264 69.75 21.3125 69.75H13.5625C13.0486 69.75 12.5558 69.9541 12.1925 70.3175C11.8291 70.6808 11.625 71.1736 11.625 71.6875C11.625 72.2014 11.8291 72.6942 12.1925 73.0575C12.5558 73.4209 13.0486 73.625 13.5625 73.625H19.375V77.5H13.5625C13.0486 77.5 12.5558 77.7041 12.1925 78.0675C11.8291 78.4308 11.625 78.9236 11.625 79.4375C11.625 79.9514 11.8291 80.4442 12.1925 80.8075C12.5558 81.1709 13.0486 81.375 13.5625 81.375H36.8125C37.3264 81.375 37.8192 81.1709 38.1825 80.8075C38.5459 80.4442 38.75 79.9514 38.75 79.4375C38.75 78.9236 38.5459 78.4308 38.1825 78.0675C37.8192 77.7041 37.3264 77.5 36.8125 77.5H31V69.75H34.875V71.6875C34.875 72.2014 35.0791 72.6942 35.4425 73.0575C35.8058 73.4209 36.2986 73.625 36.8125 73.625C37.3264 73.625 37.8192 73.4209 38.1825 73.0575C38.5459 72.6942 38.75 72.2014 38.75 71.6875V67.8125C38.75 67.2986 38.5459 66.8058 38.1825 66.4425C37.8192 66.0791 37.3264 65.875 36.8125 65.875H34.875V62H40.6875V65.875C40.6875 66.3889 40.8916 66.8817 41.255 67.245C41.6183 67.6084 42.1111 67.8125 42.625 67.8125C43.1389 67.8125 43.6317 67.6084 43.995 67.245C44.3584 66.8817 44.5625 66.3889 44.5625 65.875Z" fill="white"/>
<path d="M63.9375 44.5625H67.8125C68.3264 44.5625 68.8192 44.3584 69.1825 43.995C69.5459 43.6317 69.75 43.1389 69.75 42.625C69.75 42.1111 69.5459 41.6183 69.1825 41.255C68.8192 40.8916 68.3264 40.6875 67.8125 40.6875H63.9375C63.4236 40.6875 62.9308 40.8916 62.5675 41.255C62.2041 41.6183 62 42.1111 62 42.625C62 43.1389 62.2041 43.6317 62.5675 43.995C62.9308 44.3584 63.4236 44.5625 63.9375 44.5625Z" fill="white"/>
<path d="M71.6875 52.3125H75.5625C76.0764 52.3125 76.5692 52.1084 76.9325 51.745C77.2959 51.3817 77.5 50.8889 77.5 50.375C77.5 49.8611 77.2959 49.3683 76.9325 49.005C76.5692 48.6416 76.0764 48.4375 75.5625 48.4375H71.6875C71.1736 48.4375 70.6808 48.6416 70.3175 49.005C69.9541 49.3683 69.75 49.8611 69.75 50.375C69.75 50.8889 69.9541 51.3817 70.3175 51.745C70.6808 52.1084 71.1736 52.3125 71.6875 52.3125Z" fill="white"/>
<path d="M85.25 46.5V54.25C85.25 54.7639 85.4541 55.2567 85.8175 55.62C86.1808 55.9834 86.6736 56.1875 87.1875 56.1875H91.0625C91.5764 56.1875 92.0692 55.9834 92.4325 55.62C92.7959 55.2567 93 54.7639 93 54.25C93 53.7361 92.7959 53.2433 92.4325 52.88C92.0692 52.5166 91.5764 52.3125 91.0625 52.3125H89.125V46.5H96.875C97.3889 46.5 97.8817 46.2959 98.245 45.9325C98.6084 45.5692 98.8125 45.0764 98.8125 44.5625C98.8125 44.0486 98.6084 43.5558 98.245 43.1925C97.8817 42.8291 97.3889 42.625 96.875 42.625H83.3125V40.6875C83.3125 40.1736 83.1084 39.6808 82.745 39.3175C82.3817 38.9541 81.8889 38.75 81.375 38.75H77.5V34.875C77.5 34.3611 77.2959 33.8683 76.9325 33.505C76.5692 33.1416 76.0764 32.9375 75.5625 32.9375C75.0486 32.9375 74.5558 33.1416 74.1925 33.505C73.8291 33.8683 73.625 34.3611 73.625 34.875V40.6875C73.625 41.2014 73.8291 41.6942 74.1925 42.0575C74.5558 42.4209 75.0486 42.625 75.5625 42.625H79.4375V44.5625C79.4375 45.0764 79.6416 45.5692 80.005 45.9325C80.3683 46.2959 80.8611 46.5 81.375 46.5H85.25Z" fill="white"/>
<path d="M69.75 60.0625H79.4375C79.9514 60.0625 80.4442 59.8584 80.8075 59.495C81.1709 59.1317 81.375 58.6389 81.375 58.125C81.375 57.6111 81.1709 57.1183 80.8075 56.755C80.4442 56.3916 79.9514 56.1875 79.4375 56.1875H69.75C69.2361 56.1875 68.7433 56.3916 68.38 56.755C68.0166 57.1183 67.8125 57.6111 67.8125 58.125C67.8125 58.6389 68.0166 59.1317 68.38 59.495C68.7433 59.8584 69.2361 60.0625 69.75 60.0625Z" fill="white"/>
<path d="M112.375 44.5625C112.375 44.0486 112.171 43.5558 111.808 43.1925C111.444 42.8291 110.951 42.625 110.438 42.625H104.625C104.111 42.625 103.618 42.8291 103.255 43.1925C102.892 43.5558 102.688 44.0486 102.688 44.5625C102.688 45.0764 102.892 45.5692 103.255 45.9325C103.618 46.2959 104.111 46.5 104.625 46.5H108.5V50.375H102.688C102.174 50.375 101.681 50.5791 101.317 50.9425C100.954 51.3058 100.75 51.7986 100.75 52.3125C100.75 52.8264 100.954 53.3192 101.317 53.6825C101.681 54.0459 102.174 54.25 102.688 54.25H108.5V58.125H100.75C100.236 58.125 99.7433 58.3291 99.38 58.6925C99.0166 59.0558 98.8125 59.5486 98.8125 60.0625C98.8125 60.5764 99.0166 61.0692 99.38 61.4325C99.7433 61.7959 100.236 62 100.75 62H110.438C110.951 62 111.444 61.7959 111.808 61.4325C112.171 61.0692 112.375 60.5764 112.375 60.0625V44.5625Z" fill="white"/>
<path d="M85.25 63.9375H87.1875V65.875C87.1875 66.3889 87.3916 66.8817 87.755 67.245C88.1183 67.6084 88.6111 67.8125 89.125 67.8125C89.6389 67.8125 90.1317 67.6084 90.495 67.245C90.8584 66.8817 91.0625 66.3889 91.0625 65.875V62C91.0625 61.4861 90.8584 60.9933 90.495 60.63C90.1317 60.2666 89.6389 60.0625 89.125 60.0625H85.25C84.7361 60.0625 84.2433 60.2666 83.88 60.63C83.5166 60.9933 83.3125 61.4861 83.3125 62C83.3125 62.5139 83.5166 63.0067 83.88 63.37C84.2433 63.7334 84.7361 63.9375 85.25 63.9375Z" fill="white"/>
<path d="M98.8125 71.6875V69.75H102.688C103.201 69.75 103.694 69.5459 104.058 69.1825C104.421 68.8192 104.625 68.3264 104.625 67.8125C104.625 67.2986 104.421 66.8058 104.058 66.4425C103.694 66.0791 103.201 65.875 102.688 65.875H96.875C96.3611 65.875 95.8683 66.0791 95.505 66.4425C95.1416 66.8058 94.9375 67.2986 94.9375 67.8125V71.6875C94.9375 72.2014 95.1416 72.6942 95.505 73.0575C95.8683 73.4209 96.3611 73.625 96.875 73.625C97.3889 73.625 97.8817 73.4209 98.245 73.0575C98.6084 72.6942 98.8125 72.2014 98.8125 71.6875Z" fill="white"/>
<path d="M106.562 110.438V104.625H110.438C110.951 104.625 111.444 104.421 111.808 104.058C112.171 103.694 112.375 103.201 112.375 102.688C112.375 102.174 112.171 101.681 111.808 101.317C111.444 100.954 110.951 100.75 110.438 100.75H104.625C104.111 100.75 103.618 100.954 103.255 101.317C102.892 101.681 102.688 102.174 102.688 102.688V110.438C102.688 110.951 102.892 111.444 103.255 111.808C103.618 112.171 104.111 112.375 104.625 112.375C105.139 112.375 105.632 112.171 105.995 111.808C106.358 111.444 106.562 110.951 106.562 110.438Z" fill="white"/>
<path d="M89.125 96.875C90.1951 96.875 91.0625 96.0076 91.0625 94.9375C91.0625 93.8674 90.1951 93 89.125 93C88.0549 93 87.1875 93.8674 87.1875 94.9375C87.1875 96.0076 88.0549 96.875 89.125 96.875Z" fill="white"/>
</svg>
