<svg width="140" height="35" viewBox="0 0 140 35" fill="none" xmlns="http://www.w3.org/2000/svg">
<path d="M0 4C0 1.79086 1.79086 0 4 0H136C138.209 0 140 1.79086 140 4V31C140 33.2091 138.209 35 136 35H4C1.79086 35 0 33.2091 0 31V4Z" fill="url(#paint0_linear)"/>
<path d="M30.0396 19.395C29.9787 20.2365 29.6672 20.8989 29.105 21.3823C28.5464 21.8657 27.8088 22.1074 26.8921 22.1074C25.8895 22.1074 25.0999 21.7708 24.5234 21.0977C23.9505 20.4209 23.6641 19.4935 23.6641 18.3154V17.8374C23.6641 17.0854 23.7965 16.423 24.0615 15.8501C24.3265 15.2772 24.7043 14.8385 25.1948 14.5342C25.689 14.2262 26.2619 14.0723 26.9136 14.0723C27.8159 14.0723 28.5428 14.314 29.0942 14.7974C29.6457 15.2808 29.9644 15.9593 30.0503 16.833H28.439C28.3996 16.3281 28.2581 15.9629 28.0146 15.7373C27.7747 15.5081 27.4077 15.3936 26.9136 15.3936C26.3765 15.3936 25.9736 15.5869 25.7051 15.9736C25.4401 16.3568 25.304 16.953 25.2969 17.7622V18.353C25.2969 19.1981 25.424 19.8158 25.6782 20.2061C25.936 20.5964 26.3407 20.7915 26.8921 20.7915C27.3898 20.7915 27.7604 20.6787 28.0039 20.4531C28.251 20.224 28.3924 19.8713 28.4282 19.395H30.0396ZM37.5215 18.2671C37.5215 19.0369 37.3854 19.7119 37.1133 20.292C36.8411 20.8721 36.4508 21.3197 35.9424 21.6348C35.4375 21.9499 34.8574 22.1074 34.2021 22.1074C33.554 22.1074 32.9757 21.9517 32.4673 21.6401C31.9588 21.3286 31.5649 20.8846 31.2856 20.3081C31.0063 19.728 30.8649 19.062 30.8613 18.3101V17.9233C30.8613 17.1535 30.9992 16.4767 31.2749 15.8931C31.5542 15.3058 31.9463 14.8564 32.4512 14.5449C32.9596 14.2298 33.5397 14.0723 34.1914 14.0723C34.8431 14.0723 35.4214 14.2298 35.9263 14.5449C36.4347 14.8564 36.8268 15.3058 37.1025 15.8931C37.3818 16.4767 37.5215 17.1517 37.5215 17.918V18.2671ZM35.8887 17.9126C35.8887 17.0926 35.7419 16.4696 35.4482 16.0435C35.1546 15.6174 34.7357 15.4043 34.1914 15.4043C33.6507 15.4043 33.2336 15.6156 32.9399 16.0381C32.6463 16.457 32.4977 17.0729 32.4941 17.8857V18.2671C32.4941 19.0656 32.641 19.6851 32.9346 20.1255C33.2282 20.5659 33.6507 20.7861 34.2021 20.7861C34.7428 20.7861 35.1582 20.5749 35.4482 20.1523C35.7383 19.7262 35.8851 19.1068 35.8887 18.2939V17.9126ZM45.0518 22H43.4404L40.3037 16.8545V22H38.6924V14.1797H40.3037L43.4458 19.3359V14.1797H45.0518V22ZM52.8184 22H51.207L48.0703 16.8545V22H46.459V14.1797H48.0703L51.2124 19.3359V14.1797H52.8184V22ZM58.9307 18.6108H55.8369V20.7056H59.4678V22H54.2256V14.1797H59.457V15.4849H55.8369V17.3486H58.9307V18.6108ZM66.5522 19.395C66.4914 20.2365 66.1799 20.8989 65.6177 21.3823C65.0591 21.8657 64.3215 22.1074 63.4048 22.1074C62.4022 22.1074 61.6126 21.7708 61.0361 21.0977C60.4632 20.4209 60.1768 19.4935 60.1768 18.3154V17.8374C60.1768 17.0854 60.3092 16.423 60.5742 15.8501C60.8392 15.2772 61.217 14.8385 61.7075 14.5342C62.2017 14.2262 62.7746 14.0723 63.4263 14.0723C64.3286 14.0723 65.0555 14.314 65.6069 14.7974C66.1584 15.2808 66.4771 15.9593 66.563 16.833H64.9517C64.9123 16.3281 64.7708 15.9629 64.5273 15.7373C64.2874 15.5081 63.9204 15.3936 63.4263 15.3936C62.8892 15.3936 62.4863 15.5869 62.2178 15.9736C61.9528 16.3568 61.8167 16.953 61.8096 17.7622V18.353C61.8096 19.1981 61.9367 19.8158 62.1909 20.2061C62.4487 20.5964 62.8534 20.7915 63.4048 20.7915C63.9025 20.7915 64.2731 20.6787 64.5166 20.4531C64.7637 20.224 64.9051 19.8713 64.9409 19.395H66.5522ZM73.3359 15.4849H70.9404V22H69.3291V15.4849H66.9658V14.1797H73.3359V15.4849ZM82.7676 19.7441L83.8203 14.1797H85.4263L83.6914 22H82.0693L80.7964 16.7686L79.5234 22H77.9014L76.1665 14.1797H77.7725L78.8306 19.7334L80.1196 14.1797H81.4839L82.7676 19.7441ZM90.4805 20.3887H87.6553L87.1182 22H85.4048L88.3159 14.1797H89.8091L92.7363 22H91.0229L90.4805 20.3887ZM88.0903 19.0835H90.0454L89.0625 16.1562L88.0903 19.0835ZM95.0781 20.7056H98.4995V22H93.4668V14.1797H95.0781V20.7056ZM101.04 20.7056H104.461V22H99.4287V14.1797H101.04V20.7056ZM110.096 18.6108H107.002V20.7056H110.633V22H105.391V14.1797H110.622V15.4849H107.002V17.3486H110.096V18.6108ZM117.572 15.4849H115.177V22H113.565V15.4849H111.202V14.1797H117.572V15.4849Z" fill="#07101A"/>
<defs>
<linearGradient id="paint0_linear" x1="140" y1="7.50001" x2="2.5" y2="17" gradientUnits="userSpaceOnUse">
<stop stop-color="#00D46A"/>
<stop offset="1" stop-color="#1262FF"/>
</linearGradient>
</defs>
</svg>
