<svg width="20" height="25" viewBox="0 0 20 15" fill="none" xmlns="http://www.w3.org/2000/svg">
<path d="M10 0C4.48609 0 0 4.48609 0 10C0 15.5139 4.48609 20 10 20C15.5139 20 20 15.5139 20 10C20 4.48609 15.5139 0 10 0ZM10 18.75C5.17519 18.75 1.25001 14.8249 1.25001 10C1.25001 5.17522 5.17519 1.25001 10 1.25001C14.8248 1.25001 18.75 5.17519 18.75 10C18.75 14.8248 14.8248 18.75 10 18.75Z" fill="white"/>
<path d="M9.375 15H10.625V16.25H9.375V15Z" fill="white"/>
<path d="M10 3.75C7.93214 3.75 6.25 5.43211 6.25 7.5V8.75002H7.50001V7.5C7.50001 6.1212 8.62124 5.00001 10 5.00001C11.3788 5.00001 12.5 6.12124 12.5 7.5C12.5 8.43811 12.0001 9.32128 11.1957 9.80407L9.6783 10.7141C9.49032 10.827 9.37496 11.0302 9.37496 11.25V13.75H10.625V11.604L11.839 10.8758C13.0175 10.1678 13.75 8.87449 13.75 7.49997C13.75 5.43211 12.0679 3.75 10 3.75Z" fill="white"/>
</svg>
