<svg width="24" height="24" viewBox="0 0 24 24" fill="none" xmlns="http://www.w3.org/2000/svg">
<path d="M19.9559 0.0320129H9.02875V14.8154H23.6939V3.87834C23.6998 1.80168 22.016 0.0320129 19.9559 0.0320129ZM5.67298 0.0320129H3.83984C1.7798 0.0320129 0.0183105 1.72343 0.0183105 3.88436V5.73228H5.67298V0.0320129ZM0.0183105 9.19338H5.67298V14.8936H0.0183105V9.19338ZM18.0452 23.9768H19.8783C21.9384 23.9768 23.6998 22.2853 23.6998 20.1244V18.2825H18.0452V23.9768ZM9.02875 18.2825H14.6834V23.9828H9.02875V18.2825ZM0.0183105 18.2825V20.1304C0.0183105 22.2071 1.6962 23.9828 3.83984 23.9828H5.67298V18.2825H0.0183105Z" fill="white"/>
</svg>
