<svg width="100" height="100" viewBox="0 0 100 100" fill="none" xmlns="http://www.w3.org/2000/svg">
<path d="M86.0329 11.1425L54.8025 34.3377L60.5778 20.6528L86.0329 11.1425Z" fill="#E2761B" stroke="#E2761B" stroke-linecap="round" stroke-linejoin="round"/>
<path d="M13.9364 11.1425L44.9157 34.5574L39.4229 20.6528L13.9364 11.1425Z" fill="#E4761B" stroke="#E4761B" stroke-linecap="round" stroke-linejoin="round"/>
<path d="M74.7962 64.909L66.4785 77.6522L84.2751 82.5486L89.3913 65.1915L74.7962 64.909Z" fill="#E4761B" stroke="#E4761B" stroke-linecap="round" stroke-linejoin="round"/>
<path d="M10.6405 65.1915L15.7252 82.5486L33.5219 77.6522L25.2042 64.909L10.6405 65.1915Z" fill="#E4761B" stroke="#E4761B" stroke-linecap="round" stroke-linejoin="round"/>
<path d="M32.5172 43.3772L27.558 50.8788L45.229 51.6635L44.6013 32.6742L32.5172 43.3772Z" fill="#E4761B" stroke="#E4761B" stroke-linecap="round" stroke-linejoin="round"/>
<path d="M67.4521 43.3773L55.211 32.4545L54.803 51.6635L72.4426 50.8788L67.4521 43.3773Z" fill="#E4761B" stroke="#E4761B" stroke-linecap="round" stroke-linejoin="round"/>
<path d="M33.5221 77.6522L44.131 72.4733L34.9659 65.317L33.5221 77.6522Z" fill="#E4761B" stroke="#E4761B" stroke-linecap="round" stroke-linejoin="round"/>
<path d="M55.838 72.4733L66.4783 77.6522L65.0031 65.317L55.838 72.4733Z" fill="#E4761B" stroke="#E4761B" stroke-linecap="round" stroke-linejoin="round"/>
<path d="M66.4784 77.6522L55.8381 72.4733L56.6856 79.4099L56.5914 82.3289L66.4784 77.6522Z" fill="#D7C1B3" stroke="#D7C1B3" stroke-linecap="round" stroke-linejoin="round"/>
<path d="M33.5216 77.6522L43.4086 82.3289L43.3458 79.4099L44.1305 72.4733L33.5216 77.6522Z" fill="#D7C1B3" stroke="#D7C1B3" stroke-linecap="round" stroke-linejoin="round"/>
<path d="M43.5654 60.7344L34.7142 58.1293L40.9603 55.2731L43.5654 60.7344Z" fill="#233447" stroke="#233447" stroke-linecap="round" stroke-linejoin="round"/>
<path d="M56.4031 60.7344L59.0082 55.2731L65.2857 58.1293L56.4031 60.7344Z" fill="#233447" stroke="#233447" stroke-linecap="round" stroke-linejoin="round"/>
<path d="M33.5216 77.6522L35.0282 64.909L25.204 65.1915L33.5216 77.6522Z" fill="#CD6116" stroke="#CD6116" stroke-linecap="round" stroke-linejoin="round"/>
<path d="M64.9714 64.909L66.478 77.6522L74.7957 65.1915L64.9714 64.909Z" fill="#CD6116" stroke="#CD6116" stroke-linecap="round" stroke-linejoin="round"/>
<path d="M72.4421 50.8788L54.8025 51.6635L56.4346 60.7345L59.0398 55.2731L65.3172 58.1293L72.4421 50.8788Z" fill="#CD6116" stroke="#CD6116" stroke-linecap="round" stroke-linejoin="round"/>
<path d="M34.7142 58.1293L40.9916 55.2731L43.5654 60.7345L45.2289 51.6635L27.5579 50.8788L34.7142 58.1293Z" fill="#CD6116" stroke="#CD6116" stroke-linecap="round" stroke-linejoin="round"/>
<path d="M27.5579 50.8788L34.9653 65.317L34.7142 58.1293L27.5579 50.8788Z" fill="#E4751F" stroke="#E4751F" stroke-linecap="round" stroke-linejoin="round"/>
<path d="M65.3168 58.1293L65.0029 65.317L72.4418 50.8788L65.3168 58.1293Z" fill="#E4751F" stroke="#E4751F" stroke-linecap="round" stroke-linejoin="round"/>
<path d="M45.2288 51.6635L43.5653 60.7345L45.6369 71.4375L46.1077 57.3446L45.2288 51.6635Z" fill="#E4751F" stroke="#E4751F" stroke-linecap="round" stroke-linejoin="round"/>
<path d="M54.8021 51.6635L53.9546 57.3132L54.3312 71.4375L56.4342 60.7345L54.8021 51.6635Z" fill="#E4751F" stroke="#E4751F" stroke-linecap="round" stroke-linejoin="round"/>
<path d="M56.4345 60.7345L54.3315 71.4375L55.8381 72.4733L65.0032 65.317L65.3171 58.1293L56.4345 60.7345Z" fill="#F6851B" stroke="#F6851B" stroke-linecap="round" stroke-linejoin="round"/>
<path d="M34.7142 58.1293L34.9653 65.317L44.1304 72.4733L45.637 71.4375L43.5655 60.7345L34.7142 58.1293Z" fill="#F6851B" stroke="#F6851B" stroke-linecap="round" stroke-linejoin="round"/>
<path d="M56.5913 82.3289L56.6854 79.4099L55.9008 78.7193H44.0677L43.3458 79.4099L43.4086 82.3289L33.5216 77.6522L36.9742 80.477L43.9736 85.3421H55.9949L63.0257 80.477L66.4783 77.6522L56.5913 82.3289Z" fill="#C0AD9E" stroke="#C0AD9E" stroke-linecap="round" stroke-linejoin="round"/>
<path d="M55.8379 72.4734L54.3313 71.4376H45.637L44.1304 72.4734L43.3457 79.41L44.0676 78.7194H55.9006L56.6853 79.41L55.8379 72.4734Z" fill="#161616" stroke="#161616" stroke-linecap="round" stroke-linejoin="round"/>
<path d="M87.3509 35.8443L90.0188 23.0383L86.0326 11.1425L55.838 33.553L67.4513 43.3773L83.8669 48.1795L87.5078 43.9422L85.9385 42.8123L88.4494 40.521L86.5034 39.0144L89.0144 37.0998L87.3509 35.8443Z" fill="#763D16" stroke="#763D16" stroke-linecap="round" stroke-linejoin="round"/>
<path d="M9.98132 23.0383L12.6492 35.8443L10.9543 37.0998L13.4653 39.0144L11.5507 40.521L14.0617 42.8123L12.4923 43.9422L16.1018 48.1795L32.5174 43.3773L44.1307 33.553L13.9361 11.1425L9.98132 23.0383Z" fill="#763D16" stroke="#763D16" stroke-linecap="round" stroke-linejoin="round"/>
<path d="M83.8667 48.1795L67.4511 43.3772L72.4417 50.8788L65.0029 65.317L74.7958 65.1914H89.3909L83.8667 48.1795Z" fill="#F6851B" stroke="#F6851B" stroke-linecap="round" stroke-linejoin="round"/>
<path d="M32.5175 43.3772L16.1019 48.1795L10.6405 65.1914H25.2042L34.9657 65.317L27.5583 50.8788L32.5175 43.3772Z" fill="#F6851B" stroke="#F6851B" stroke-linecap="round" stroke-linejoin="round"/>
<path d="M54.8024 51.6635L55.8382 33.553L60.6091 20.6528H39.4226L44.1307 33.553L45.2293 51.6635L45.6059 57.376L45.6373 71.4375H54.3316L54.3944 57.376L54.8024 51.6635Z" fill="#F6851B" stroke="#F6851B" stroke-linecap="round" stroke-linejoin="round"/>
</svg>
