<svg width="24" height="24" viewBox="0 0 24 24" fill="none" xmlns="http://www.w3.org/2000/svg">
<path d="M20.6479 2.67419L13.1526 8.24105L14.5387 4.95668L20.6479 2.67419Z" fill="#E2761B" stroke="#E2761B" stroke-linecap="round" stroke-linejoin="round"/>
<path d="M3.34473 2.67419L10.7798 8.29378L9.46148 4.95668L3.34473 2.67419Z" fill="#E4761B" stroke="#E4761B" stroke-linecap="round" stroke-linejoin="round"/>
<path d="M17.9511 15.5782L15.9548 18.6365L20.226 19.8117L21.4539 15.646L17.9511 15.5782Z" fill="#E4761B" stroke="#E4761B" stroke-linecap="round" stroke-linejoin="round"/>
<path d="M2.55371 15.646L3.77405 19.8117L8.04524 18.6365L6.049 15.5782L2.55371 15.646Z" fill="#E4761B" stroke="#E4761B" stroke-linecap="round" stroke-linejoin="round"/>
<path d="M7.80422 10.4105L6.61401 12.2109L10.8551 12.3992L10.7044 7.8418L7.80422 10.4105Z" fill="#E4761B" stroke="#E4761B" stroke-linecap="round" stroke-linejoin="round"/>
<path d="M16.1884 10.4105L13.2505 7.78908L13.1526 12.3992L17.3861 12.2109L16.1884 10.4105Z" fill="#E4761B" stroke="#E4761B" stroke-linecap="round" stroke-linejoin="round"/>
<path d="M8.04517 18.6365L10.5913 17.3936L8.39168 15.6761L8.04517 18.6365Z" fill="#E4761B" stroke="#E4761B" stroke-linecap="round" stroke-linejoin="round"/>
<path d="M13.4011 17.3936L15.9548 18.6365L15.6007 15.6761L13.4011 17.3936Z" fill="#E4761B" stroke="#E4761B" stroke-linecap="round" stroke-linejoin="round"/>
<path d="M15.9548 18.6365L13.4011 17.3936L13.6045 19.0584L13.5819 19.7589L15.9548 18.6365Z" fill="#D7C1B3" stroke="#D7C1B3" stroke-linecap="round" stroke-linejoin="round"/>
<path d="M8.04517 18.6365L10.418 19.7589L10.403 19.0584L10.5913 17.3936L8.04517 18.6365Z" fill="#D7C1B3" stroke="#D7C1B3" stroke-linecap="round" stroke-linejoin="round"/>
<path d="M10.4556 14.5763L8.3313 13.951L9.83035 13.2655L10.4556 14.5763Z" fill="#233447" stroke="#233447" stroke-linecap="round" stroke-linejoin="round"/>
<path d="M13.5369 14.5763L14.1621 13.2655L15.6687 13.951L13.5369 14.5763Z" fill="#233447" stroke="#233447" stroke-linecap="round" stroke-linejoin="round"/>
<path d="M8.0453 18.6365L8.40689 15.5782L6.04907 15.646L8.0453 18.6365Z" fill="#CD6116" stroke="#CD6116" stroke-linecap="round" stroke-linejoin="round"/>
<path d="M15.5933 15.5782L15.9548 18.6365L17.9511 15.646L15.5933 15.5782Z" fill="#CD6116" stroke="#CD6116" stroke-linecap="round" stroke-linejoin="round"/>
<path d="M17.3861 12.2109L13.1526 12.3992L13.5443 14.5763L14.1695 13.2655L15.6761 13.951L17.3861 12.2109Z" fill="#CD6116" stroke="#CD6116" stroke-linecap="round" stroke-linejoin="round"/>
<path d="M8.33153 13.951L9.83812 13.2655L10.4558 14.5763L10.8551 12.3992L6.61401 12.2109L8.33153 13.951Z" fill="#CD6116" stroke="#CD6116" stroke-linecap="round" stroke-linejoin="round"/>
<path d="M6.61401 12.2109L8.39179 15.6761L8.33153 13.951L6.61401 12.2109Z" fill="#E4751F" stroke="#E4751F" stroke-linecap="round" stroke-linejoin="round"/>
<path d="M15.6762 13.951L15.6008 15.6761L17.3861 12.2109L15.6762 13.951Z" fill="#E4751F" stroke="#E4751F" stroke-linecap="round" stroke-linejoin="round"/>
<path d="M10.8551 12.3992L10.4558 14.5763L10.953 17.145L11.066 13.7627L10.8551 12.3992Z" fill="#E4751F" stroke="#E4751F" stroke-linecap="round" stroke-linejoin="round"/>
<path d="M13.1526 12.3992L12.9492 13.7552L13.0396 17.145L13.5443 14.5763L13.1526 12.3992Z" fill="#E4751F" stroke="#E4751F" stroke-linecap="round" stroke-linejoin="round"/>
<path d="M13.5443 14.5763L13.0396 17.145L13.4011 17.3936L15.6008 15.6761L15.6761 13.951L13.5443 14.5763Z" fill="#F6851B" stroke="#F6851B" stroke-linecap="round" stroke-linejoin="round"/>
<path d="M8.3313 13.951L8.39156 15.6761L10.5912 17.3936L10.9528 17.145L10.4556 14.5763L8.3313 13.951Z" fill="#F6851B" stroke="#F6851B" stroke-linecap="round" stroke-linejoin="round"/>
<path d="M13.5819 19.7589L13.6045 19.0584L13.4162 18.8926H10.5762L10.403 19.0584L10.418 19.7589L8.04517 18.6365L8.87379 19.3145L10.5536 20.4821H13.4388L15.1261 19.3145L15.9548 18.6365L13.5819 19.7589Z" fill="#C0AD9E" stroke="#C0AD9E" stroke-linecap="round" stroke-linejoin="round"/>
<path d="M13.4012 17.3936L13.0396 17.145H10.953L10.5914 17.3936L10.4031 19.0584L10.5763 18.8927H13.4163L13.6046 19.0584L13.4012 17.3936Z" fill="#161616" stroke="#161616" stroke-linecap="round" stroke-linejoin="round"/>
<path d="M20.9642 8.60263L21.6045 5.52919L20.6478 2.67419L13.4011 8.05273L16.1883 10.4105L20.1281 11.5631L21.0019 10.5461L20.6252 10.2749L21.2279 9.72504L20.7608 9.36346L21.3635 8.90395L20.9642 8.60263Z" fill="#763D16" stroke="#763D16" stroke-linecap="round" stroke-linejoin="round"/>
<path d="M2.39551 5.52919L3.03581 8.60263L2.62903 8.90395L3.23167 9.36346L2.77216 9.72504L3.37479 10.2749L2.99814 10.5461L3.86443 11.5631L7.80417 10.4105L10.5914 8.05273L3.34466 2.67419L2.39551 5.52919Z" fill="#763D16" stroke="#763D16" stroke-linecap="round" stroke-linejoin="round"/>
<path d="M20.1279 11.5631L16.1882 10.4105L17.3859 12.2109L15.6006 15.6761L17.9509 15.6459H21.4537L20.1279 11.5631Z" fill="#F6851B" stroke="#F6851B" stroke-linecap="round" stroke-linejoin="round"/>
<path d="M7.80418 10.4105L3.86444 11.5631L2.55371 15.6459H6.049L8.39175 15.6761L6.61397 12.2109L7.80418 10.4105Z" fill="#F6851B" stroke="#F6851B" stroke-linecap="round" stroke-linejoin="round"/>
<path d="M13.1526 12.3992L13.4012 8.05273L14.5462 4.95668H9.46143L10.5914 8.05273L10.855 12.3992L10.9454 13.7702L10.953 17.145H13.0396L13.0547 13.7702L13.1526 12.3992Z" fill="#F6851B" stroke="#F6851B" stroke-linecap="round" stroke-linejoin="round"/>
</svg>
