<svg width="14" height="14" viewBox="0 0 14 14" fill="none" xmlns="http://www.w3.org/2000/svg">
<g opacity="0.5">
<path d="M13.5352 12.7477L10.3141 9.52656C11.1125 8.55312 11.5938 7.30625 11.5938 5.94727C11.5938 2.83008 9.06445 0.300781 5.94727 0.300781C2.82734 0.300781 0.300781 2.83008 0.300781 5.94727C0.300781 9.06445 2.82734 11.5938 5.94727 11.5938C7.30625 11.5938 8.55039 11.1152 9.52383 10.3168L12.7449 13.5352C12.9637 13.7539 13.3164 13.7539 13.5352 13.5352C13.7539 13.3191 13.7539 12.9637 13.5352 12.7477ZM5.94727 10.4699C3.45078 10.4699 1.42188 8.44102 1.42188 5.94727C1.42188 3.45352 3.45078 1.42188 5.94727 1.42188C8.44102 1.42188 10.4727 3.45352 10.4727 5.94727C10.4727 8.44102 8.44102 10.4699 5.94727 10.4699Z" fill="white"/>
</g>
</svg>
