<svg width="14" height="14" viewBox="0 0 14 14" fill="none" xmlns="http://www.w3.org/2000/svg">
                <g opacity="0.5" clip-path="url(#clip0)">
                <path d="M7.40694 1.10338V0.638606C7.40694 0.381909 7.19886 0.173828 6.94216 0.173828H0.464778C0.208081 0.173828 0 0.381909 0 0.638606V1.10338C0 1.36008 0.208081 1.56816 0.464778 1.56816H6.94216C7.19886 1.56816 7.40694 1.36008 7.40694 1.10338Z" fill="white"/>
                <path d="M6.06935 3.10254H0.464778C0.208081 3.10254 0 3.31062 0 3.56732V4.0321C0 4.28879 0.208081 4.49687 0.464778 4.49687H6.06935C6.32605 4.49687 6.53413 4.28879 6.53413 4.0321V3.56732C6.53413 3.31062 6.32605 3.10254 6.06935 3.10254Z" fill="white"/>
                <path d="M5.19645 6.0293H0.464778C0.208081 6.0293 0 6.23738 0 6.49408V6.95885C0 7.21555 0.208081 7.42363 0.464778 7.42363H5.19645C5.45315 7.42363 5.66123 7.21555 5.66123 6.95885V6.49408C5.66123 6.23738 5.45315 6.0293 5.19645 6.0293Z" fill="white"/>
                <path d="M4.3236 9.28418H0.464778C0.208081 9.28418 0 9.49226 0 9.74896V10.2137C0 10.4704 0.208081 10.6785 0.464778 10.6785H4.3236C4.58025 10.6785 4.78838 10.4704 4.78838 10.2137V9.74896C4.78838 9.49226 4.5803 9.28418 4.3236 9.28418Z" fill="white"/>
                <path d="M3.4507 12.2119H0.464778C0.208081 12.2119 0 12.42 0 12.6767V13.1415C0 13.3982 0.208081 13.6062 0.464778 13.6062H3.4507C3.70735 13.6062 3.91548 13.3982 3.91548 13.1415V12.6767C3.91548 12.42 3.7074 12.2119 3.4507 12.2119Z" fill="white"/>
                <path d="M13.8644 10.0802L13.5358 9.75154C13.4486 9.6644 13.3304 9.61541 13.2071 9.61541C13.0839 9.61541 12.9657 9.6644 12.8785 9.75154L11.2799 11.3501V0.871028C11.2799 0.614331 11.0719 0.40625 10.8152 0.40625H10.3504C10.0937 0.40625 9.88562 0.614331 9.88562 0.871028V11.35L8.2871 9.7515C8.19991 9.66435 8.08172 9.61536 7.95846 9.61536C7.8352 9.61536 7.71696 9.66435 7.62982 9.7515L7.30113 10.0801C7.11968 10.2616 7.11968 10.5559 7.30113 10.7374L10.2541 13.6904C10.3449 13.7812 10.4638 13.8266 10.5828 13.8266C10.7017 13.8266 10.8207 13.7812 10.9114 13.6904L13.8644 10.7374C14.0459 10.5559 14.0459 10.2616 13.8644 10.0802Z" fill="white"/>
                </g>
                <defs>
                <clipPath id="clip0">
                <rect width="14" height="14" fill="white"/>
                </clipPath>
                </defs>
                </svg>